<svg xmlns="http://www.w3.org/2000/svg" width="700" height="420" viewBox="0 0 700 420"><rect x="0" y="0" width="700" height="420" fill="white"/><line x1="60.0" y1="370.0" x2="680.0" y2="370.0" stroke="#333333" stroke-width="1.0"/><line x1="60.0" y1="40.0" x2="60.0" y2="370.0" stroke="#333333" stroke-width="1.0"/><line x1="98.75" y1="370.0" x2="98.75" y2="375.0" stroke="#333333" stroke-width="1.0"/><text x="98.75" y="388.0" font-family="sans-serif" font-size="12.0" fill="#333333" text-anchor="middle">15</text><line x1="292.5" y1="370.0" x2="292.5" y2="375.0" stroke="#333333" stroke-width="1.0"/><text x="292.5" y="388.0" font-family="sans-serif" font-size="12.0" fill="#333333" text-anchor="middle">20</text><line x1="486.25" y1="370.0" x2="486.25" y2="375.0" stroke="#333333" stroke-width="1.0"/><text x="486.25" y="388.0" font-family="sans-serif" font-size="12.0" fill="#333333" text-anchor="middle">25</text><line x1="680.0" y1="370.0" x2="680.0" y2="375.0" stroke="#333333" stroke-width="1.0"/><text x="680.0" y="388.0" font-family="sans-serif" font-size="12.0" fill="#333333" text-anchor="middle">30</text><line x1="55.0" y1="239.43971261181818" x2="60.0" y2="239.43971261181818" stroke="#333333" stroke-width="1.0"/><text x="52.0" y="243.43971261181818" font-family="sans-serif" font-size="12.0" fill="#333333" text-anchor="end">0.30</text><line x1="55.0" y1="99.15954136173355" x2="60.0" y2="99.15954136173355" stroke="#333333" stroke-width="1.0"/><text x="52.0" y="103.15954136173355" font-family="sans-serif" font-size="12.0" fill="#333333" text-anchor="end">0.40</text><line x1="60.0" y1="40.0" x2="60.0" y2="370.0" stroke="#333333" stroke-width="1.0"/><polyline fill="none" stroke="#1f77b4" stroke-width="1.5" points="60.0,40.0 98.75,80.82547120543495 137.5,116.70670992441802 176.25,148.46796035165866 215.0,176.76507917786031 253.75,202.12527030407338 292.5,224.97634096298702 331.25,245.6685074250608 370.0,264.4908317466377 408.75,281.683741387247 447.5,297.44865818120724 486.25,311.95547155993165 525.0,325.3483882749599 563.75,337.7505482415682 602.5,349.26769455226815 641.25,359.9911125897792 680.0,370.0"/><text x="60.0" y="16.0" font-family="sans-serif" font-size="16.0" fill="#333333" text-anchor="start">Optimal runtime: 14 days  (power floor: 8 days)</text><text x="60.0" y="32.0" font-family="sans-serif" font-size="12.0" fill="#666666" text-anchor="start">Baseline 5%  ·  500/day  ·  MDE ≥ 1.5pp  ·  max 30 days</text><text x="370.0" y="412.0" font-family="sans-serif" font-size="12.0" fill="#333333" text-anchor="middle">Runtime (days)</text><text x="20.0" y="205.0" font-family="sans-serif" font-size="12.0" fill="#333333" text-anchor="middle" transform="rotate(-90.0 20.0 205.0)">Monthly detection rate</text></svg>