<svg xmlns="http://www.w3.org/2000/svg" width="640" height="420" viewBox="0 0 640 420"><rect x="0" y="0" width="640" height="420" fill="#f7f7f7"/><line x1="60.0" y1="370.0" x2="620.0" y2="370.0" stroke="#333333" stroke-width="1.0"/><line x1="60.0" y1="40.0" x2="60.0" y2="370.0" stroke="#333333" stroke-width="1.0"/><line x1="153.33333333333331" y1="370.0" x2="153.33333333333331" y2="375.0" stroke="#333333" stroke-width="1.0"/><text x="153.33333333333331" y="388.0" font-family="sans-serif" font-size="12.0" fill="#333333" text-anchor="middle">0</text><line x1="340.0" y1="370.0" x2="340.0" y2="375.0" stroke="#333333" stroke-width="1.0"/><text x="340.0" y="388.0" font-family="sans-serif" font-size="12.0" fill="#333333" text-anchor="middle">1</text><line x1="526.6666666666667" y1="370.0" x2="526.6666666666667" y2="375.0" stroke="#333333" stroke-width="1.0"/><text x="526.6666666666667" y="388.0" font-family="sans-serif" font-size="12.0" fill="#333333" text-anchor="middle">2</text><line x1="55.0" y1="285.1409912540243" x2="60.0" y2="285.1409912540243" stroke="#333333" stroke-width="1.0"/><text x="52.0" y="289.1409912540243" font-family="sans-serif" font-size="12.0" fill="#333333" text-anchor="end">-10</text><line x1="55.0" y1="162.57049562701215" x2="60.0" y2="162.57049562701215" stroke="#333333" stroke-width="1.0"/><text x="52.0" y="166.57049562701215" font-family="sans-serif" font-size="12.0" fill="#333333" text-anchor="end">-5</text><line x1="55.0" y1="40.0" x2="60.0" y2="40.0" stroke="#333333" stroke-width="1.0"/><text x="52.0" y="44.0" font-family="sans-serif" font-size="12.0" fill="#333333" text-anchor="end">0</text><rect x="78.66666666666664" y="40.0" width="149.33333333333334" height="330.0" fill="#756bb1" stroke="none" stroke-width="0.0"/><rect x="265.3333333333333" y="40.0" width="149.33333333333334" height="13.270108265448073" fill="#756bb1" stroke="none" stroke-width="0.0"/><rect x="452.00000000000006" y="40.0" width="149.33333333333334" height="24.600821293691524" fill="#756bb1" stroke="none" stroke-width="0.0"/><text x="320.0" y="25.0" font-family="sans-serif" font-size="16.0" fill="#333333" text-anchor="middle">Regression Coefficients</text><text x="340.0" y="412.0" font-family="sans-serif" font-size="12.0" fill="#333333" text-anchor="middle">Feature index (0=Crime, 1=ResLand, 2=Distance)</text><text x="20.0" y="205.0" font-family="sans-serif" font-size="12.0" fill="#333333" text-anchor="middle" transform="rotate(-90.0 20.0 205.0)">Coefficient</text></svg>