<svg xmlns="http://www.w3.org/2000/svg" width="640" height="420" viewBox="0 0 640 420"><rect x="0" y="0" width="640" height="420" fill="white"/><line x1="60.0" y1="370.0" x2="620.0" y2="370.0" stroke="#333333" stroke-width="1.0"/><line x1="60.0" y1="40.0" x2="60.0" y2="370.0" stroke="#333333" stroke-width="1.0"/><line x1="210.74887418691276" y1="370.0" x2="210.74887418691276" y2="375.0" stroke="#333333" stroke-width="1.0"/><text x="210.74887418691276" y="388.0" font-family="sans-serif" font-size="12.0" fill="#333333" text-anchor="middle">0.20</text><line x1="366.4168566186691" y1="370.0" x2="366.4168566186691" y2="375.0" stroke="#333333" stroke-width="1.0"/><text x="366.4168566186691" y="388.0" font-family="sans-serif" font-size="12.0" fill="#333333" text-anchor="middle">0.40</text><line x1="522.0848390504253" y1="370.0" x2="522.0848390504253" y2="375.0" stroke="#333333" stroke-width="1.0"/><text x="522.0848390504253" y="388.0" font-family="sans-serif" font-size="12.0" fill="#333333" text-anchor="middle">0.60</text><line x1="55.0" y1="292.1698113207547" x2="60.0" y2="292.1698113207547" stroke="#333333" stroke-width="1.0"/><text x="52.0" y="296.1698113207547" font-family="sans-serif" font-size="12.0" fill="#333333" text-anchor="end">20</text><line x1="55.0" y1="136.50943396226415" x2="60.0" y2="136.50943396226415" stroke="#333333" stroke-width="1.0"/><text x="52.0" y="140.50943396226415" font-family="sans-serif" font-size="12.0" fill="#333333" text-anchor="end">30</text><circle cx="60.0" cy="229.90566037735852" r="3.0" fill="#1f77b4" stroke="none" stroke-width="0.0"/><circle cx="76.33735475621282" cy="267.2641509433962" r="3.0" fill="#1f77b4" stroke="none" stroke-width="0.0"/><circle cx="76.32178795796965" cy="63.34905660377359" r="3.0" fill="#1f77b4" stroke="none" stroke-width="0.0"/><circle cx="80.27575471173625" cy="83.58490566037744" r="3.0" fill="#1f77b4" stroke="none" stroke-width="0.0"/><circle cx="108.82526268972035" cy="40.0" r="3.0" fill="#1f77b4" stroke="none" stroke-width="0.0"/><circle cx="78.31433813309613" cy="156.74528301886795" r="3.0" fill="#1f77b4" stroke="none" stroke-width="0.0"/><circle cx="123.8005225996553" cy="247.02830188679252" r="3.0" fill="#1f77b4" stroke="none" stroke-width="0.0"/><circle cx="167.58992605770834" cy="181.6509433962264" r="3.0" fill="#1f77b4" stroke="none" stroke-width="0.0"/><circle cx="219.49741479957748" cy="346.6509433962264" r="3.0" fill="#1f77b4" stroke="none" stroke-width="0.0"/><circle cx="187.42981041863567" cy="309.2924528301887" r="3.0" fill="#1f77b4" stroke="none" stroke-width="0.0"/><circle cx="230.12175460054485" cy="370.0" r="3.0" fill="#1f77b4" stroke="none" stroke-width="0.0"/><circle cx="146.51248123644854" cy="309.2924528301887" r="3.0" fill="#1f77b4" stroke="none" stroke-width="0.0"/><circle cx="128.073608717407" cy="265.70754716981133" r="3.0" fill="#1f77b4" stroke="none" stroke-width="0.0"/><circle cx="545.2482348362706" cy="285.94339622641513" r="3.0" fill="#1f77b4" stroke="none" stroke-width="0.0"/><circle cx="551.6306221159726" cy="320.188679245283" r="3.0" fill="#1f77b4" stroke="none" stroke-width="0.0"/><circle cx="541.8702396175015" cy="293.72641509433964" r="3.0" fill="#1f77b4" stroke="none" stroke-width="0.0"/><circle cx="620.0" cy="243.9150943396226" r="3.0" fill="#1f77b4" stroke="none" stroke-width="0.0"/><circle cx="607.0717740590427" cy="331.08490566037733" r="3.0" fill="#1f77b4" stroke="none" stroke-width="0.0"/><circle cx="611.7495969311169" cy="289.0566037735849" r="3.0" fill="#1f77b4" stroke="none" stroke-width="0.0"/><circle cx="475.7736142769778" cy="320.188679245283" r="3.0" fill="#1f77b4" stroke="none" stroke-width="0.0"/><polyline fill="none" stroke="#ff7f0e" stroke-width="1.5" points="60.0,199.6842287980317 76.32178795796965,203.21937025427553 76.33735475621282,203.22274187225952 78.31433813309613,203.65093735622995 80.27575471173625,204.07576122221636 108.82526268972035,210.259308604907 123.8005225996553,213.50280510553313 128.073608717407,214.4283142421463 146.51248123644854,218.4219957442167 167.58992605770834,222.9871664945783 187.42981041863567,227.28429361521037 219.49741479957748,234.22982666228933 230.12175460054485,236.53095593638218 475.7736142769778,289.73677353319243 541.8702396175015,304.0526634933367 545.2482348362706,304.7843045958688 551.6306221159726,306.1666679693165 607.0717740590427,318.1746854193998 611.7495969311169,319.1878566235975 620.0,320.9748141551275"/><text x="320.0" y="25.0" font-family="sans-serif" font-size="16.0" fill="#333333" text-anchor="middle">Price vs Crime Rate</text><text x="340.0" y="412.0" font-family="sans-serif" font-size="12.0" fill="#333333" text-anchor="middle">Crime Rate</text><text x="20.0" y="205.0" font-family="sans-serif" font-size="12.0" fill="#333333" text-anchor="middle" transform="rotate(-90.0 20.0 205.0)">Median House Price</text><rect x="520.0" y="44.0" width="12.0" height="12.0" fill="#1f77b4" stroke="none" stroke-width="0.0"/><text x="538.0" y="55.0" font-family="sans-serif" font-size="12.0" fill="#333333" text-anchor="start">observed</text><rect x="520.0" y="62.0" width="12.0" height="12.0" fill="#ff7f0e" stroke="none" stroke-width="0.0"/><text x="538.0" y="73.0" font-family="sans-serif" font-size="12.0" fill="#333333" text-anchor="start">fit</text></svg>