<svg xmlns="http://www.w3.org/2000/svg" width="640" height="420" viewBox="0 0 640 420"><rect x="0" y="0" width="640" height="420" fill="white"/><line x1="60.0" y1="370.0" x2="620.0" y2="370.0" stroke="#333333" stroke-width="1.0"/><line x1="60.0" y1="40.0" x2="60.0" y2="370.0" stroke="#333333" stroke-width="1.0"/><line x1="192.99302282825585" y1="370.0" x2="192.99302282825585" y2="375.0" stroke="#333333" stroke-width="1.0"/><text x="192.99302282825585" y="388.0" font-family="sans-serif" font-size="12.0" fill="#333333" text-anchor="middle">20</text><line x1="336.7301662580036" y1="370.0" x2="336.7301662580036" y2="375.0" stroke="#333333" stroke-width="1.0"/><text x="336.7301662580036" y="388.0" font-family="sans-serif" font-size="12.0" fill="#333333" text-anchor="middle">22</text><line x1="480.4673096877513" y1="370.0" x2="480.4673096877513" y2="375.0" stroke="#333333" stroke-width="1.0"/><text x="480.4673096877513" y="388.0" font-family="sans-serif" font-size="12.0" fill="#333333" text-anchor="middle">24</text><line x1="55.0" y1="309.5485402810547" x2="60.0" y2="309.5485402810547" stroke="#333333" stroke-width="1.0"/><text x="52.0" y="313.5485402810547" font-family="sans-serif" font-size="12.0" fill="#333333" text-anchor="end">-5</text><line x1="55.0" y1="224.98625941891459" x2="60.0" y2="224.98625941891459" stroke="#333333" stroke-width="1.0"/><text x="52.0" y="228.98625941891459" font-family="sans-serif" font-size="12.0" fill="#333333" text-anchor="end">0</text><line x1="55.0" y1="140.42397855677447" x2="60.0" y2="140.42397855677447" stroke="#333333" stroke-width="1.0"/><text x="52.0" y="144.42397855677447" font-family="sans-serif" font-size="12.0" fill="#333333" text-anchor="end">5</text><line x1="55.0" y1="55.86169769463436" x2="60.0" y2="55.86169769463436" stroke="#333333" stroke-width="1.0"/><text x="52.0" y="59.86169769463436" font-family="sans-serif" font-size="12.0" fill="#333333" text-anchor="end">10</text><line x1="60.0" y1="224.98625941891459" x2="620.0" y2="224.98625941891459" stroke="#333333" stroke-width="1.0"/><circle cx="620.0" cy="257.8217597387086" r="3.0" fill="#1f77b4" stroke="none" stroke-width="0.0"/><circle cx="603.6626452437873" cy="294.56707006038744" r="3.0" fill="#1f77b4" stroke="none" stroke-width="0.0"/><circle cx="603.6782120420303" cy="73.0175574550268" r="3.0" fill="#1f77b4" stroke="none" stroke-width="0.0"/><circle cx="599.7242452882637" cy="94.07328410376101" r="3.0" fill="#1f77b4" stroke="none" stroke-width="0.0"/><circle cx="571.1747373102795" cy="40.0" r="3.0" fill="#1f77b4" stroke="none" stroke-width="0.0"/><circle cx="601.6856618669038" cy="174.02339804843734" r="3.0" fill="#1f77b4" stroke="none" stroke-width="0.0"/><circle cx="556.1994774003449" cy="261.4116172777171" r="3.0" fill="#1f77b4" stroke="none" stroke-width="0.0"/><circle cx="512.4100739422915" cy="180.07456940838983" r="3.0" fill="#1f77b4" stroke="none" stroke-width="0.0"/><circle cx="460.50258520042246" cy="347.1314862186245" r="3.0" fill="#1f77b4" stroke="none" stroke-width="0.0"/><circle cx="492.57018958136433" cy="314.0878935046788" r="3.0" fill="#1f77b4" stroke="none" stroke-width="0.0"/><circle cx="449.8782453994553" cy="370.0" r="3.0" fill="#1f77b4" stroke="none" stroke-width="0.0"/><circle cx="533.4875187635514" cy="323.71675518892084" r="3.0" fill="#1f77b4" stroke="none" stroke-width="0.0"/><circle cx="551.9263912825932" cy="280.70100161355424" r="3.0" fill="#1f77b4" stroke="none" stroke-width="0.0"/><circle cx="134.75176516372932" cy="204.51566552376644" r="3.0" fill="#1f77b4" stroke="none" stroke-width="0.0"/><circle cx="128.36937788402733" cy="240.22113519002488" r="3.0" fill="#1f77b4" stroke="none" stroke-width="0.0"/><circle cx="138.12976038249843" cy="213.76681960788062" r="3.0" fill="#1f77b4" stroke="none" stroke-width="0.0"/><circle cx="60.0" cy="141.26109080790437" r="3.0" fill="#1f77b4" stroke="none" stroke-width="0.0"/><circle cx="72.92822594095732" cy="239.01317736085647" r="3.0" fill="#1f77b4" stroke="none" stroke-width="0.0"/><circle cx="68.25040306888305" cy="192.24873803461423" r="3.0" fill="#1f77b4" stroke="none" stroke-width="0.0"/><circle cx="204.22638572302213" cy="258.0721692350359" r="3.0" fill="#1f77b4" stroke="none" stroke-width="0.0"/><text x="320.0" y="25.0" font-family="sans-serif" font-size="16.0" fill="#333333" text-anchor="middle">Residuals vs Fitted</text><text x="340.0" y="412.0" font-family="sans-serif" font-size="12.0" fill="#333333" text-anchor="middle">Fitted value</text><text x="20.0" y="205.0" font-family="sans-serif" font-size="12.0" fill="#333333" text-anchor="middle" transform="rotate(-90.0 20.0 205.0)">Residual</text></svg>