<svg xmlns="http://www.w3.org/2000/svg" width="640" height="420" viewBox="0 0 640 420"><rect x="0" y="0" width="640" height="420" fill="white"/><line x1="60.0" y1="370.0" x2="620.0" y2="370.0" stroke="#333333" stroke-width="1.0"/><line x1="60.0" y1="40.0" x2="60.0" y2="370.0" stroke="#333333" stroke-width="1.0"/><line x1="162.58429528063442" y1="370.0" x2="162.58429528063442" y2="375.0" stroke="#333333" stroke-width="1.0"/><text x="162.58429528063442" y="388.0" font-family="sans-serif" font-size="12.0" fill="#333333" text-anchor="middle">-5</text><line x1="306.08392341032675" y1="370.0" x2="306.08392341032675" y2="375.0" stroke="#333333" stroke-width="1.0"/><text x="306.08392341032675" y="388.0" font-family="sans-serif" font-size="12.0" fill="#333333" text-anchor="middle">0</text><line x1="449.5835515400191" y1="370.0" x2="449.5835515400191" y2="375.0" stroke="#333333" stroke-width="1.0"/><text x="449.5835515400191" y="388.0" font-family="sans-serif" font-size="12.0" fill="#333333" text-anchor="middle">5</text><line x1="593.0831796697114" y1="370.0" x2="593.0831796697114" y2="375.0" stroke="#333333" stroke-width="1.0"/><text x="593.0831796697114" y="388.0" font-family="sans-serif" font-size="12.0" fill="#333333" text-anchor="middle">10</text><line x1="55.0" y1="370.0" x2="60.0" y2="370.0" stroke="#333333" stroke-width="1.0"/><text x="52.0" y="374.0" font-family="sans-serif" font-size="12.0" fill="#333333" text-anchor="end">0</text><line x1="55.0" y1="304.0" x2="60.0" y2="304.0" stroke="#333333" stroke-width="1.0"/><text x="52.0" y="308.0" font-family="sans-serif" font-size="12.0" fill="#333333" text-anchor="end">1</text><line x1="55.0" y1="238.0" x2="60.0" y2="238.0" stroke="#333333" stroke-width="1.0"/><text x="52.0" y="242.0" font-family="sans-serif" font-size="12.0" fill="#333333" text-anchor="end">2</text><line x1="55.0" y1="172.0" x2="60.0" y2="172.0" stroke="#333333" stroke-width="1.0"/><text x="52.0" y="176.0" font-family="sans-serif" font-size="12.0" fill="#333333" text-anchor="end">3</text><line x1="55.0" y1="106.0" x2="60.0" y2="106.0" stroke="#333333" stroke-width="1.0"/><text x="52.0" y="110.0" font-family="sans-serif" font-size="12.0" fill="#333333" text-anchor="end">4</text><line x1="55.0" y1="40.0" x2="60.0" y2="40.0" stroke="#333333" stroke-width="1.0"/><text x="52.0" y="44.0" font-family="sans-serif" font-size="12.0" fill="#333333" text-anchor="end">5</text><rect x="60.0" y="172.0" width="93.33333333333331" height="198.0" fill="#1f77b4" stroke="white" stroke-width="1.0"/><rect x="153.33333333333331" y="106.0" width="93.33333333333334" height="264.0" fill="#1f77b4" stroke="white" stroke-width="1.0"/><rect x="246.66666666666666" y="40.0" width="93.33333333333334" height="330.0" fill="#1f77b4" stroke="white" stroke-width="1.0"/><rect x="340.0" y="106.0" width="93.33333333333331" height="264.0" fill="#1f77b4" stroke="white" stroke-width="1.0"/><rect x="433.3333333333333" y="304.0" width="93.33333333333331" height="66.0" fill="#1f77b4" stroke="white" stroke-width="1.0"/><rect x="526.6666666666666" y="172.0" width="93.33333333333337" height="198.0" fill="#1f77b4" stroke="white" stroke-width="1.0"/><text x="60.0" y="16.0" font-family="sans-serif" font-size="16.0" fill="#333333" text-anchor="start">Residual Distribution</text><text x="340.0" y="412.0" font-family="sans-serif" font-size="12.0" fill="#333333" text-anchor="middle">Residual</text><text x="20.0" y="205.0" font-family="sans-serif" font-size="12.0" fill="#333333" text-anchor="middle" transform="rotate(-90.0 20.0 205.0)">Count</text></svg>