<svg xmlns="http://www.w3.org/2000/svg" width="640" height="420" viewBox="0 0 640 420"><rect x="0" y="0" width="640" height="420" fill="white"/><line x1="130.0" y1="40.0" x2="130.0" y2="370.0" stroke="#e0e0e0" stroke-width="1.0"/><line x1="270.0" y1="40.0" x2="270.0" y2="370.0" stroke="#e0e0e0" stroke-width="1.0"/><line x1="410.0" y1="40.0" x2="410.0" y2="370.0" stroke="#e0e0e0" stroke-width="1.0"/><line x1="550.0" y1="40.0" x2="550.0" y2="370.0" stroke="#e0e0e0" stroke-width="1.0"/><line x1="60.0" y1="370.0" x2="620.0" y2="370.0" stroke="#e0e0e0" stroke-width="1.0"/><line x1="60.0" y1="260.0" x2="620.0" y2="260.0" stroke="#e0e0e0" stroke-width="1.0"/><line x1="60.0" y1="150.0" x2="620.0" y2="150.0" stroke="#e0e0e0" stroke-width="1.0"/><line x1="60.0" y1="40.0" x2="620.0" y2="40.0" stroke="#e0e0e0" stroke-width="1.0"/><line x1="60.0" y1="370.0" x2="620.0" y2="370.0" stroke="#333333" stroke-width="1.0"/><line x1="60.0" y1="40.0" x2="60.0" y2="370.0" stroke="#333333" stroke-width="1.0"/><line x1="130.0" y1="370.0" x2="130.0" y2="375.0" stroke="#333333" stroke-width="1.0"/><text x="130.0" y="388.0" font-family="sans-serif" font-size="12.0" fill="#333333" text-anchor="middle">0</text><line x1="270.0" y1="370.0" x2="270.0" y2="375.0" stroke="#333333" stroke-width="1.0"/><text x="270.0" y="388.0" font-family="sans-serif" font-size="12.0" fill="#333333" text-anchor="middle">1</text><line x1="410.0" y1="370.0" x2="410.0" y2="375.0" stroke="#333333" stroke-width="1.0"/><text x="410.0" y="388.0" font-family="sans-serif" font-size="12.0" fill="#333333" text-anchor="middle">2</text><line x1="550.0" y1="370.0" x2="550.0" y2="375.0" stroke="#333333" stroke-width="1.0"/><text x="550.0" y="388.0" font-family="sans-serif" font-size="12.0" fill="#333333" text-anchor="middle">3</text><line x1="55.0" y1="370.0" x2="60.0" y2="370.0" stroke="#333333" stroke-width="1.0"/><text x="52.0" y="374.0" font-family="sans-serif" font-size="12.0" fill="#333333" text-anchor="end">20</text><line x1="55.0" y1="260.0" x2="60.0" y2="260.0" stroke="#333333" stroke-width="1.0"/><text x="52.0" y="264.0" font-family="sans-serif" font-size="12.0" fill="#333333" text-anchor="end">40</text><line x1="55.0" y1="150.0" x2="60.0" y2="150.0" stroke="#333333" stroke-width="1.0"/><text x="52.0" y="154.0" font-family="sans-serif" font-size="12.0" fill="#333333" text-anchor="end">60</text><line x1="55.0" y1="40.0" x2="60.0" y2="40.0" stroke="#333333" stroke-width="1.0"/><text x="52.0" y="44.0" font-family="sans-serif" font-size="12.0" fill="#333333" text-anchor="end">80</text><rect x="88.0" y="172.0" width="84.0" height="33.0" fill="#1f77b4" stroke="#333333" stroke-width="1.0"/><line x1="88.0" y1="188.49999999999997" x2="172.0" y2="188.49999999999997" stroke="#333333" stroke-width="2.0"/><line x1="130.0" y1="172.0" x2="130.0" y2="150.0" stroke="#333333" stroke-width="1.0"/><line x1="130.0" y1="205.0" x2="130.0" y2="232.5" stroke="#333333" stroke-width="1.0"/><line x1="104.8" y1="150.0" x2="155.2" y2="150.0" stroke="#333333" stroke-width="1.0"/><line x1="104.8" y1="232.5" x2="155.2" y2="232.5" stroke="#333333" stroke-width="1.0"/><rect x="228.0" y="108.75" width="84.0" height="165.0" fill="#ff7f0e" stroke="#333333" stroke-width="1.0"/><line x1="228.0" y1="177.5" x2="312.0" y2="177.5" stroke="#333333" stroke-width="2.0"/><line x1="270.0" y1="108.75" x2="270.0" y2="40.0" stroke="#333333" stroke-width="1.0"/><line x1="270.0" y1="273.75" x2="270.0" y2="370.0" stroke="#333333" stroke-width="1.0"/><line x1="244.8" y1="40.0" x2="295.2" y2="40.0" stroke="#333333" stroke-width="1.0"/><line x1="244.8" y1="370.0" x2="295.2" y2="370.0" stroke="#333333" stroke-width="1.0"/><rect x="368.0" y="249.0" width="84.0" height="44.0" fill="#2ca02c" stroke="#333333" stroke-width="1.0"/><line x1="368.0" y1="282.0" x2="452.0" y2="282.0" stroke="#333333" stroke-width="2.0"/><line x1="410.0" y1="249.0" x2="410.0" y2="249.0" stroke="#333333" stroke-width="1.0"/><line x1="410.0" y1="293.0" x2="410.0" y2="315.0" stroke="#333333" stroke-width="1.0"/><line x1="384.8" y1="249.0" x2="435.2" y2="249.0" stroke="#333333" stroke-width="1.0"/><line x1="384.8" y1="315.0" x2="435.2" y2="315.0" stroke="#333333" stroke-width="1.0"/><circle cx="410.0" cy="95.0" r="3.0" fill="none" stroke="#2ca02c" stroke-width="1.0"/><circle cx="410.0" cy="106.0" r="3.0" fill="none" stroke="#2ca02c" stroke-width="1.0"/><circle cx="410.0" cy="177.5" r="3.0" fill="none" stroke="#2ca02c" stroke-width="1.0"/><rect x="508.0" y="161.0" width="84.0" height="66.0" fill="#d62728" stroke="#333333" stroke-width="1.0"/><line x1="508.0" y1="194.0" x2="592.0" y2="194.0" stroke="#333333" stroke-width="2.0"/><line x1="550.0" y1="161.0" x2="550.0" y2="128.00000000000003" stroke="#333333" stroke-width="1.0"/><line x1="550.0" y1="227.0" x2="550.0" y2="260.0" stroke="#333333" stroke-width="1.0"/><line x1="524.8" y1="128.00000000000003" x2="575.2" y2="128.00000000000003" stroke="#333333" stroke-width="1.0"/><line x1="524.8" y1="260.0" x2="575.2" y2="260.0" stroke="#333333" stroke-width="1.0"/><text x="130.0" y="184.49999999999997" font-family="sans-serif" font-size="12.0" fill="#333333" text-anchor="middle">53</text><text x="270.0" y="173.5" font-family="sans-serif" font-size="12.0" fill="#333333" text-anchor="middle">55</text><text x="410.0" y="278.0" font-family="sans-serif" font-size="12.0" fill="#333333" text-anchor="middle">36</text><text x="550.0" y="190.0" font-family="sans-serif" font-size="12.0" fill="#333333" text-anchor="middle">52</text><text x="60.0" y="16.0" font-family="sans-serif" font-size="16.0" fill="#333333" text-anchor="start">Distribution Comparison</text><text x="60.0" y="32.0" font-family="sans-serif" font-size="12.0" fill="#666666" text-anchor="start">Box plots with median labels</text><text x="20.0" y="205.0" font-family="sans-serif" font-size="12.0" fill="#333333" text-anchor="middle" transform="rotate(-90.0 20.0 205.0)">Value</text><rect x="520.0" y="44.0" width="12.0" height="12.0" fill="#1f77b4" stroke="none" stroke-width="0.0"/><text x="538.0" y="55.0" font-family="sans-serif" font-size="12.0" fill="#333333" text-anchor="start">A</text><rect x="520.0" y="62.0" width="12.0" height="12.0" fill="#ff7f0e" stroke="none" stroke-width="0.0"/><text x="538.0" y="73.0" font-family="sans-serif" font-size="12.0" fill="#333333" text-anchor="start">B</text><rect x="520.0" y="80.0" width="12.0" height="12.0" fill="#2ca02c" stroke="none" stroke-width="0.0"/><text x="538.0" y="91.0" font-family="sans-serif" font-size="12.0" fill="#333333" text-anchor="start">C</text><rect x="520.0" y="98.0" width="12.0" height="12.0" fill="#d62728" stroke="none" stroke-width="0.0"/><text x="538.0" y="109.0" font-family="sans-serif" font-size="12.0" fill="#333333" text-anchor="start">D</text></svg>