<svg xmlns="http://www.w3.org/2000/svg" width="640" height="420" viewBox="0 0 640 420"><rect x="0" y="0" width="640" height="420" fill="white"/><line x1="60.0" y1="40.0" x2="60.0" y2="370.0" stroke="#e0e0e0" stroke-width="1.0"/><line x1="196.58536585365854" y1="40.0" x2="196.58536585365854" y2="370.0" stroke="#e0e0e0" stroke-width="1.0"/><line x1="333.1707317073171" y1="40.0" x2="333.1707317073171" y2="370.0" stroke="#e0e0e0" stroke-width="1.0"/><line x1="469.7560975609757" y1="40.0" x2="469.7560975609757" y2="370.0" stroke="#e0e0e0" stroke-width="1.0"/><line x1="606.3414634146342" y1="40.0" x2="606.3414634146342" y2="370.0" stroke="#e0e0e0" stroke-width="1.0"/><line x1="60.0" y1="349.375" x2="620.0" y2="349.375" stroke="#e0e0e0" stroke-width="1.0"/><line x1="60.0" y1="266.875" x2="620.0" y2="266.875" stroke="#e0e0e0" stroke-width="1.0"/><line x1="60.0" y1="184.375" x2="620.0" y2="184.375" stroke="#e0e0e0" stroke-width="1.0"/><line x1="60.0" y1="101.875" x2="620.0" y2="101.875" stroke="#e0e0e0" stroke-width="1.0"/><line x1="60.0" y1="370.0" x2="620.0" y2="370.0" stroke="#333333" stroke-width="1.0"/><line x1="60.0" y1="40.0" x2="60.0" y2="370.0" stroke="#333333" stroke-width="1.0"/><line x1="60.0" y1="370.0" x2="60.0" y2="375.0" stroke="#333333" stroke-width="1.0"/><text x="60.0" y="388.0" font-family="sans-serif" font-size="12.0" fill="#333333" text-anchor="middle">0</text><line x1="196.58536585365854" y1="370.0" x2="196.58536585365854" y2="375.0" stroke="#333333" stroke-width="1.0"/><text x="196.58536585365854" y="388.0" font-family="sans-serif" font-size="12.0" fill="#333333" text-anchor="middle">0.20</text><line x1="333.1707317073171" y1="370.0" x2="333.1707317073171" y2="375.0" stroke="#333333" stroke-width="1.0"/><text x="333.1707317073171" y="388.0" font-family="sans-serif" font-size="12.0" fill="#333333" text-anchor="middle">0.40</text><line x1="469.7560975609757" y1="370.0" x2="469.7560975609757" y2="375.0" stroke="#333333" stroke-width="1.0"/><text x="469.7560975609757" y="388.0" font-family="sans-serif" font-size="12.0" fill="#333333" text-anchor="middle">0.60</text><line x1="606.3414634146342" y1="370.0" x2="606.3414634146342" y2="375.0" stroke="#333333" stroke-width="1.0"/><text x="606.3414634146342" y="388.0" font-family="sans-serif" font-size="12.0" fill="#333333" text-anchor="middle">0.80</text><line x1="55.0" y1="60.625" x2="60.0" y2="60.625" stroke="#333333" stroke-width="1.0"/><text x="52.0" y="64.625" font-family="sans-serif" font-size="12.0" fill="#333333" text-anchor="end">Age</text><line x1="55.0" y1="101.875" x2="60.0" y2="101.875" stroke="#333333" stroke-width="1.0"/><text x="52.0" y="105.875" font-family="sans-serif" font-size="12.0" fill="#333333" text-anchor="end">Income</text><line x1="55.0" y1="143.125" x2="60.0" y2="143.125" stroke="#333333" stroke-width="1.0"/><text x="52.0" y="147.125" font-family="sans-serif" font-size="12.0" fill="#333333" text-anchor="end">Education</text><line x1="55.0" y1="184.375" x2="60.0" y2="184.375" stroke="#333333" stroke-width="1.0"/><text x="52.0" y="188.375" font-family="sans-serif" font-size="12.0" fill="#333333" text-anchor="end">Distance</text><line x1="55.0" y1="225.625" x2="60.0" y2="225.625" stroke="#333333" stroke-width="1.0"/><text x="52.0" y="229.625" font-family="sans-serif" font-size="12.0" fill="#333333" text-anchor="end">Tenure</text><line x1="55.0" y1="266.875" x2="60.0" y2="266.875" stroke="#333333" stroke-width="1.0"/><text x="52.0" y="270.875" font-family="sans-serif" font-size="12.0" fill="#333333" text-anchor="end">Score</text><line x1="55.0" y1="308.125" x2="60.0" y2="308.125" stroke="#333333" stroke-width="1.0"/><text x="52.0" y="312.125" font-family="sans-serif" font-size="12.0" fill="#333333" text-anchor="end">Visits</text><line x1="55.0" y1="349.375" x2="60.0" y2="349.375" stroke="#333333" stroke-width="1.0"/><text x="52.0" y="353.375" font-family="sans-serif" font-size="12.0" fill="#333333" text-anchor="end">Days</text><line x1="60.0" y1="60.625" x2="620.0" y2="60.625" stroke="#e0e0e0" stroke-width="1.0"/><circle cx="620.0" cy="60.625" r="4.0" fill="#1f77b4" stroke="none" stroke-width="0.0"/><line x1="60.0" y1="101.875" x2="565.3658536585366" y2="101.875" stroke="#e0e0e0" stroke-width="1.0"/><circle cx="565.3658536585366" cy="101.875" r="4.0" fill="#1f77b4" stroke="none" stroke-width="0.0"/><line x1="60.0" y1="143.125" x2="524.3902439024391" y2="143.125" stroke="#e0e0e0" stroke-width="1.0"/><circle cx="524.3902439024391" cy="143.125" r="4.0" fill="#1f77b4" stroke="none" stroke-width="0.0"/><line x1="60.0" y1="184.375" x2="476.5853658536585" y2="184.375" stroke="#e0e0e0" stroke-width="1.0"/><circle cx="476.5853658536585" cy="184.375" r="4.0" fill="#1f77b4" stroke="none" stroke-width="0.0"/><line x1="60.0" y1="225.625" x2="435.609756097561" y2="225.625" stroke="#e0e0e0" stroke-width="1.0"/><circle cx="435.609756097561" cy="225.625" r="4.0" fill="#1f77b4" stroke="none" stroke-width="0.0"/><line x1="60.0" y1="266.875" x2="394.6341463414634" y2="266.875" stroke="#e0e0e0" stroke-width="1.0"/><circle cx="394.6341463414634" cy="266.875" r="4.0" fill="#1f77b4" stroke="none" stroke-width="0.0"/><line x1="60.0" y1="308.125" x2="312.6829268292683" y2="308.125" stroke="#e0e0e0" stroke-width="1.0"/><circle cx="312.6829268292683" cy="308.125" r="4.0" fill="#1f77b4" stroke="none" stroke-width="0.0"/><line x1="60.0" y1="349.375" x2="210.2439024390244" y2="349.375" stroke="#e0e0e0" stroke-width="1.0"/><circle cx="210.2439024390244" cy="349.375" r="4.0" fill="#1f77b4" stroke="none" stroke-width="0.0"/><text x="627.0" y="64.825" font-family="sans-serif" font-size="12.0" fill="#333333" text-anchor="start">0.82</text><text x="572.3658536585366" y="106.075" font-family="sans-serif" font-size="12.0" fill="#333333" text-anchor="start">0.74</text><text x="531.3902439024391" y="147.325" font-family="sans-serif" font-size="12.0" fill="#333333" text-anchor="start">0.68</text><text x="483.5853658536585" y="188.575" font-family="sans-serif" font-size="12.0" fill="#333333" text-anchor="start">0.61</text><text x="442.609756097561" y="229.825" font-family="sans-serif" font-size="12.0" fill="#333333" text-anchor="start">0.55</text><text x="401.6341463414634" y="271.075" font-family="sans-serif" font-size="12.0" fill="#333333" text-anchor="start">0.49</text><text x="319.6829268292683" y="312.325" font-family="sans-serif" font-size="12.0" fill="#333333" text-anchor="start">0.37</text><text x="217.2439024390244" y="353.575" font-family="sans-serif" font-size="12.0" fill="#333333" text-anchor="start">0.22</text><text x="60.0" y="16.0" font-family="sans-serif" font-size="16.0" fill="#333333" text-anchor="start">Feature Importance</text><text x="60.0" y="32.0" font-family="sans-serif" font-size="12.0" fill="#666666" text-anchor="start">Cleveland dot plot</text><text x="340.0" y="412.0" font-family="sans-serif" font-size="12.0" fill="#333333" text-anchor="middle">Importance score</text></svg>