<svg xmlns="http://www.w3.org/2000/svg" width="640" height="420" viewBox="0 0 640 420"><rect x="0" y="0" width="640" height="420" fill="white"/><line x1="144.52830188679246" y1="40.0" x2="144.52830188679246" y2="370.0" stroke="#e0e0e0" stroke-width="1.0"/><line x1="355.8490566037736" y1="40.0" x2="355.8490566037736" y2="370.0" stroke="#e0e0e0" stroke-width="1.0"/><line x1="567.1698113207547" y1="40.0" x2="567.1698113207547" y2="370.0" stroke="#e0e0e0" stroke-width="1.0"/><line x1="60.0" y1="366.17760617760615" x2="620.0" y2="366.17760617760615" stroke="#e0e0e0" stroke-width="1.0"/><line x1="60.0" y1="238.76447876447875" x2="620.0" y2="238.76447876447875" stroke="#e0e0e0" stroke-width="1.0"/><line x1="60.0" y1="111.35135135135135" x2="620.0" y2="111.35135135135135" stroke="#e0e0e0" stroke-width="1.0"/><line x1="60.0" y1="370.0" x2="620.0" y2="370.0" stroke="#333333" stroke-width="1.0"/><line x1="60.0" y1="40.0" x2="60.0" y2="370.0" stroke="#333333" stroke-width="1.0"/><line x1="144.52830188679246" y1="370.0" x2="144.52830188679246" y2="375.0" stroke="#333333" stroke-width="1.0"/><text x="144.52830188679246" y="388.0" font-family="sans-serif" font-size="12.0" fill="#333333" text-anchor="middle">0</text><line x1="355.8490566037736" y1="370.0" x2="355.8490566037736" y2="375.0" stroke="#333333" stroke-width="1.0"/><text x="355.8490566037736" y="388.0" font-family="sans-serif" font-size="12.0" fill="#333333" text-anchor="middle">0.20</text><line x1="567.1698113207547" y1="370.0" x2="567.1698113207547" y2="375.0" stroke="#333333" stroke-width="1.0"/><text x="567.1698113207547" y="388.0" font-family="sans-serif" font-size="12.0" fill="#333333" text-anchor="middle">0.40</text><line x1="55.0" y1="366.17760617760615" x2="60.0" y2="366.17760617760615" stroke="#333333" stroke-width="1.0"/><text x="52.0" y="370.17760617760615" font-family="sans-serif" font-size="12.0" fill="#333333" text-anchor="end">0</text><line x1="55.0" y1="238.76447876447875" x2="60.0" y2="238.76447876447875" stroke="#333333" stroke-width="1.0"/><text x="52.0" y="242.76447876447875" font-family="sans-serif" font-size="12.0" fill="#333333" text-anchor="end">2</text><line x1="55.0" y1="111.35135135135135" x2="60.0" y2="111.35135135135135" stroke="#333333" stroke-width="1.0"/><text x="52.0" y="115.35135135135135" font-family="sans-serif" font-size="12.0" fill="#333333" text-anchor="end">4</text><line x1="144.52830188679246" y1="40.0" x2="144.52830188679246" y2="370.0" stroke="#333333" stroke-width="1.0"/><circle cx="482.6415094339623" cy="47.64478764478764" r="3.0" fill="#1f77b4" stroke="none" stroke-width="0.0"/><circle cx="334.7169811320755" cy="111.35135135135135" r="3.0" fill="#1f77b4" stroke="none" stroke-width="0.0"/><circle cx="620.0" cy="175.05791505791504" r="3.0" fill="#1f77b4" stroke="none" stroke-width="0.0"/><circle cx="60.0" cy="238.76447876447875" r="3.0" fill="#1f77b4" stroke="none" stroke-width="0.0"/><circle cx="440.37735849056605" cy="302.47104247104244" r="3.0" fill="#1f77b4" stroke="none" stroke-width="0.0"/><circle cx="429.81132075471703" cy="366.17760617760615" r="3.0" fill="#1f77b4" stroke="none" stroke-width="0.0"/><line x1="482.6415094339623" y1="55.28957528957528" x2="482.6415094339623" y2="40.0" stroke="#333333" stroke-width="1.0"/><line x1="478.6415094339623" y1="40.0" x2="486.6415094339623" y2="40.0" stroke="#333333" stroke-width="1.0"/><line x1="478.6415094339623" y1="55.28957528957528" x2="486.6415094339623" y2="55.28957528957528" stroke="#333333" stroke-width="1.0"/><line x1="334.7169811320755" y1="122.81853281853279" x2="334.7169811320755" y2="99.88416988416992" stroke="#333333" stroke-width="1.0"/><line x1="330.7169811320755" y1="99.88416988416992" x2="338.7169811320755" y2="99.88416988416992" stroke="#333333" stroke-width="1.0"/><line x1="330.7169811320755" y1="122.81853281853279" x2="338.7169811320755" y2="122.81853281853279" stroke="#333333" stroke-width="1.0"/><line x1="620.0" y1="189.07335907335906" x2="620.0" y2="161.04247104247102" stroke="#333333" stroke-width="1.0"/><line x1="616.0" y1="161.04247104247102" x2="624.0" y2="161.04247104247102" stroke="#333333" stroke-width="1.0"/><line x1="616.0" y1="189.07335907335906" x2="624.0" y2="189.07335907335906" stroke="#333333" stroke-width="1.0"/><line x1="60.0" y1="248.32046332046332" x2="60.0" y2="229.2084942084942" stroke="#333333" stroke-width="1.0"/><line x1="56.0" y1="229.2084942084942" x2="64.0" y2="229.2084942084942" stroke="#333333" stroke-width="1.0"/><line x1="56.0" y1="248.32046332046332" x2="64.0" y2="248.32046332046332" stroke="#333333" stroke-width="1.0"/><line x1="440.37735849056605" y1="308.84169884169887" x2="440.37735849056605" y2="296.1003861003861" stroke="#333333" stroke-width="1.0"/><line x1="436.37735849056605" y1="296.1003861003861" x2="444.37735849056605" y2="296.1003861003861" stroke="#333333" stroke-width="1.0"/><line x1="436.37735849056605" y1="308.84169884169887" x2="444.37735849056605" y2="308.84169884169887" stroke="#333333" stroke-width="1.0"/><line x1="429.81132075471703" y1="370.0" x2="429.81132075471703" y2="362.35521235521236" stroke="#333333" stroke-width="1.0"/><line x1="425.81132075471703" y1="362.35521235521236" x2="433.81132075471703" y2="362.35521235521236" stroke="#333333" stroke-width="1.0"/><line x1="425.81132075471703" y1="370.0" x2="433.81132075471703" y2="370.0" stroke="#333333" stroke-width="1.0"/><text x="60.0" y="16.0" font-family="sans-serif" font-size="16.0" fill="#333333" text-anchor="start">Forest Plot</text><text x="60.0" y="32.0" font-family="sans-serif" font-size="12.0" fill="#666666" text-anchor="start">Effect sizes with 95% CI</text><text x="340.0" y="412.0" font-family="sans-serif" font-size="12.0" fill="#333333" text-anchor="middle">Effect size</text></svg>