<svg xmlns="http://www.w3.org/2000/svg" width="640" height="420" viewBox="0 0 640 420"><rect x="0" y="0" width="640" height="420" fill="white"/><line x1="60.0" y1="40.0" x2="60.0" y2="370.0" stroke="#e0e0e0" stroke-width="1.0"/><line x1="232.83950617283952" y1="40.0" x2="232.83950617283952" y2="370.0" stroke="#e0e0e0" stroke-width="1.0"/><line x1="405.67901234567904" y1="40.0" x2="405.67901234567904" y2="370.0" stroke="#e0e0e0" stroke-width="1.0"/><line x1="578.5185185185185" y1="40.0" x2="578.5185185185185" y2="370.0" stroke="#e0e0e0" stroke-width="1.0"/><line x1="60.0" y1="342.5" x2="620.0" y2="342.5" stroke="#e0e0e0" stroke-width="1.0"/><line x1="60.0" y1="232.5" x2="620.0" y2="232.5" stroke="#e0e0e0" stroke-width="1.0"/><line x1="60.0" y1="122.5" x2="620.0" y2="122.5" stroke="#e0e0e0" stroke-width="1.0"/><line x1="60.0" y1="370.0" x2="620.0" y2="370.0" stroke="#333333" stroke-width="1.0"/><line x1="60.0" y1="40.0" x2="60.0" y2="370.0" stroke="#333333" stroke-width="1.0"/><line x1="60.0" y1="370.0" x2="60.0" y2="375.0" stroke="#333333" stroke-width="1.0"/><text x="60.0" y="388.0" font-family="sans-serif" font-size="12.0" fill="#333333" text-anchor="middle">0</text><line x1="232.83950617283952" y1="370.0" x2="232.83950617283952" y2="375.0" stroke="#333333" stroke-width="1.0"/><text x="232.83950617283952" y="388.0" font-family="sans-serif" font-size="12.0" fill="#333333" text-anchor="middle">5</text><line x1="405.67901234567904" y1="370.0" x2="405.67901234567904" y2="375.0" stroke="#333333" stroke-width="1.0"/><text x="405.67901234567904" y="388.0" font-family="sans-serif" font-size="12.0" fill="#333333" text-anchor="middle">10</text><line x1="578.5185185185185" y1="370.0" x2="578.5185185185185" y2="375.0" stroke="#333333" stroke-width="1.0"/><text x="578.5185185185185" y="388.0" font-family="sans-serif" font-size="12.0" fill="#333333" text-anchor="middle">15</text><line x1="55.0" y1="67.5" x2="60.0" y2="67.5" stroke="#333333" stroke-width="1.0"/><text x="52.0" y="71.5" font-family="sans-serif" font-size="12.0" fill="#333333" text-anchor="end">Control</text><line x1="55.0" y1="122.5" x2="60.0" y2="122.5" stroke="#333333" stroke-width="1.0"/><text x="52.0" y="126.5" font-family="sans-serif" font-size="12.0" fill="#333333" text-anchor="end">Variant A</text><line x1="55.0" y1="177.5" x2="60.0" y2="177.5" stroke="#333333" stroke-width="1.0"/><text x="52.0" y="181.5" font-family="sans-serif" font-size="12.0" fill="#333333" text-anchor="end">Variant B</text><line x1="55.0" y1="232.5" x2="60.0" y2="232.5" stroke="#333333" stroke-width="1.0"/><text x="52.0" y="236.5" font-family="sans-serif" font-size="12.0" fill="#333333" text-anchor="end">Variant C</text><line x1="55.0" y1="287.5" x2="60.0" y2="287.5" stroke="#333333" stroke-width="1.0"/><text x="52.0" y="291.5" font-family="sans-serif" font-size="12.0" fill="#333333" text-anchor="end">Variant D</text><line x1="55.0" y1="342.5" x2="60.0" y2="342.5" stroke="#333333" stroke-width="1.0"/><text x="52.0" y="346.5" font-family="sans-serif" font-size="12.0" fill="#333333" text-anchor="end">Variant E</text><rect x="60.0" y="320.5" width="428.64197530864203" height="44.0" fill="#1f77b4" stroke="none" stroke-width="0.0"/><rect x="60.0" y="265.5" width="487.4074074074074" height="44.0" fill="#1f77b4" stroke="none" stroke-width="0.0"/><rect x="60.0" y="210.5" width="477.0370370370372" height="44.0" fill="#1f77b4" stroke="none" stroke-width="0.0"/><rect x="60.0" y="155.5" width="560.0" height="44.0" fill="#1f77b4" stroke="none" stroke-width="0.0"/><rect x="60.0" y="100.5" width="411.358024691358" height="44.0" fill="#1f77b4" stroke="none" stroke-width="0.0"/><rect x="60.0" y="45.5" width="535.8024691358025" height="44.0" fill="#1f77b4" stroke="none" stroke-width="0.0"/><text x="492.64197530864203" y="346.7" font-family="sans-serif" font-size="12.0" fill="#333333" text-anchor="start">12.40</text><text x="551.4074074074074" y="291.7" font-family="sans-serif" font-size="12.0" fill="#333333" text-anchor="start">14.10</text><text x="541.0370370370372" y="236.7" font-family="sans-serif" font-size="12.0" fill="#333333" text-anchor="start">13.80</text><text x="624.0" y="181.7" font-family="sans-serif" font-size="12.0" fill="#333333" text-anchor="start">16.20</text><text x="475.358024691358" y="126.7" font-family="sans-serif" font-size="12.0" fill="#333333" text-anchor="start">11.90</text><text x="599.8024691358025" y="71.7" font-family="sans-serif" font-size="12.0" fill="#333333" text-anchor="start">15.50</text><text x="60.0" y="16.0" font-family="sans-serif" font-size="16.0" fill="#333333" text-anchor="start">Conversion Rate by Variant</text><text x="60.0" y="32.0" font-family="sans-serif" font-size="12.0" fill="#666666" text-anchor="start">Horizontal bar chart</text><text x="340.0" y="412.0" font-family="sans-serif" font-size="12.0" fill="#333333" text-anchor="middle">Conversion rate (%)</text></svg>