<svg xmlns="http://www.w3.org/2000/svg" width="500" height="500" viewBox="0 0 500 500"><rect x="0" y="0" width="500" height="500" fill="white"/><line x1="60.0" y1="450.0" x2="480.0" y2="450.0" stroke="#333333" stroke-width="1.0"/><line x1="60.0" y1="40.0" x2="60.0" y2="450.0" stroke="#333333" stroke-width="1.0"/><line x1="102.0" y1="450.0" x2="102.0" y2="455.0" stroke="#333333" stroke-width="1.0"/><text x="102.0" y="468.0" font-family="sans-serif" font-size="12.0" fill="#333333" text-anchor="middle">A</text><line x1="186.0" y1="450.0" x2="186.0" y2="455.0" stroke="#333333" stroke-width="1.0"/><text x="186.0" y="468.0" font-family="sans-serif" font-size="12.0" fill="#333333" text-anchor="middle">B</text><line x1="270.0" y1="450.0" x2="270.0" y2="455.0" stroke="#333333" stroke-width="1.0"/><text x="270.0" y="468.0" font-family="sans-serif" font-size="12.0" fill="#333333" text-anchor="middle">C</text><line x1="354.0" y1="450.0" x2="354.0" y2="455.0" stroke="#333333" stroke-width="1.0"/><text x="354.0" y="468.0" font-family="sans-serif" font-size="12.0" fill="#333333" text-anchor="middle">D</text><line x1="438.0" y1="450.0" x2="438.0" y2="455.0" stroke="#333333" stroke-width="1.0"/><text x="438.0" y="468.0" font-family="sans-serif" font-size="12.0" fill="#333333" text-anchor="middle">E</text><line x1="55.0" y1="81.0" x2="60.0" y2="81.0" stroke="#333333" stroke-width="1.0"/><text x="52.0" y="85.0" font-family="sans-serif" font-size="12.0" fill="#333333" text-anchor="end">A</text><line x1="55.0" y1="163.0" x2="60.0" y2="163.0" stroke="#333333" stroke-width="1.0"/><text x="52.0" y="167.0" font-family="sans-serif" font-size="12.0" fill="#333333" text-anchor="end">B</text><line x1="55.0" y1="245.0" x2="60.0" y2="245.0" stroke="#333333" stroke-width="1.0"/><text x="52.0" y="249.0" font-family="sans-serif" font-size="12.0" fill="#333333" text-anchor="end">C</text><line x1="55.0" y1="327.0" x2="60.0" y2="327.0" stroke="#333333" stroke-width="1.0"/><text x="52.0" y="331.0" font-family="sans-serif" font-size="12.0" fill="#333333" text-anchor="end">D</text><line x1="55.0" y1="409.0" x2="60.0" y2="409.0" stroke="#333333" stroke-width="1.0"/><text x="52.0" y="413.0" font-family="sans-serif" font-size="12.0" fill="#333333" text-anchor="end">E</text><rect x="60.0" y="40.0" width="84.0" height="82.0" fill="#4575b4" stroke="none" stroke-width="0.0"/><rect x="144.0" y="40.0" width="84.0" height="82.0" fill="#5b6a9e" stroke="none" stroke-width="0.0"/><rect x="228.0" y="40.0" width="84.0" height="82.0" fill="#934f68" stroke="none" stroke-width="0.0"/><rect x="312.0" y="40.0" width="84.0" height="82.0" fill="#cb3531" stroke="none" stroke-width="0.0"/><rect x="396.0" y="40.0" width="84.0" height="82.0" fill="#aa4552" stroke="none" stroke-width="0.0"/><rect x="60.0" y="122.0" width="84.0" height="82.0" fill="#5b6a9e" stroke="none" stroke-width="0.0"/><rect x="144.0" y="122.0" width="84.0" height="82.0" fill="#4575b4" stroke="none" stroke-width="0.0"/><rect x="228.0" y="122.0" width="84.0" height="82.0" fill="#885572" stroke="none" stroke-width="0.0"/><rect x="312.0" y="122.0" width="84.0" height="82.0" fill="#c03a3c" stroke="none" stroke-width="0.0"/><rect x="396.0" y="122.0" width="84.0" height="82.0" fill="#9e4a5d" stroke="none" stroke-width="0.0"/><rect x="60.0" y="204.0" width="84.0" height="82.0" fill="#934f68" stroke="none" stroke-width="0.0"/><rect x="144.0" y="204.0" width="84.0" height="82.0" fill="#885572" stroke="none" stroke-width="0.0"/><rect x="228.0" y="204.0" width="84.0" height="82.0" fill="#4575b4" stroke="none" stroke-width="0.0"/><rect x="312.0" y="204.0" width="84.0" height="82.0" fill="#7d5a7d" stroke="none" stroke-width="0.0"/><rect x="396.0" y="204.0" width="84.0" height="82.0" fill="#d73027" stroke="none" stroke-width="0.0"/><rect x="60.0" y="286.0" width="84.0" height="82.0" fill="#cb3531" stroke="none" stroke-width="0.0"/><rect x="144.0" y="286.0" width="84.0" height="82.0" fill="#c03a3c" stroke="none" stroke-width="0.0"/><rect x="228.0" y="286.0" width="84.0" height="82.0" fill="#7d5a7d" stroke="none" stroke-width="0.0"/><rect x="312.0" y="286.0" width="84.0" height="82.0" fill="#4575b4" stroke="none" stroke-width="0.0"/><rect x="396.0" y="286.0" width="84.0" height="82.0" fill="#715f88" stroke="none" stroke-width="0.0"/><rect x="60.0" y="368.0" width="84.0" height="82.0" fill="#aa4552" stroke="none" stroke-width="0.0"/><rect x="144.0" y="368.0" width="84.0" height="82.0" fill="#9e4a5d" stroke="none" stroke-width="0.0"/><rect x="228.0" y="368.0" width="84.0" height="82.0" fill="#d73027" stroke="none" stroke-width="0.0"/><rect x="312.0" y="368.0" width="84.0" height="82.0" fill="#715f88" stroke="none" stroke-width="0.0"/><rect x="396.0" y="368.0" width="84.0" height="82.0" fill="#4575b4" stroke="none" stroke-width="0.0"/><text x="102.0" y="85.2" font-family="sans-serif" font-size="12.0" fill="#333333" text-anchor="middle">A</text><text x="186.0" y="85.2" font-family="sans-serif" font-size="12.0" fill="#333333" text-anchor="middle">B</text><text x="270.0" y="85.2" font-family="sans-serif" font-size="12.0" fill="#333333" text-anchor="middle">C</text><text x="354.0" y="85.2" font-family="sans-serif" font-size="12.0" fill="#333333" text-anchor="middle">D</text><text x="438.0" y="85.2" font-family="sans-serif" font-size="12.0" fill="#333333" text-anchor="middle">E</text><text x="102.0" y="167.2" font-family="sans-serif" font-size="12.0" fill="#333333" text-anchor="middle">A</text><text x="186.0" y="167.2" font-family="sans-serif" font-size="12.0" fill="#333333" text-anchor="middle">B</text><text x="270.0" y="167.2" font-family="sans-serif" font-size="12.0" fill="#333333" text-anchor="middle">C</text><text x="354.0" y="167.2" font-family="sans-serif" font-size="12.0" fill="#333333" text-anchor="middle">D</text><text x="438.0" y="167.2" font-family="sans-serif" font-size="12.0" fill="#333333" text-anchor="middle">E</text><text x="102.0" y="249.2" font-family="sans-serif" font-size="12.0" fill="#333333" text-anchor="middle">0.30</text><text x="186.0" y="249.2" font-family="sans-serif" font-size="12.0" fill="#333333" text-anchor="middle">0.40</text><text x="270.0" y="249.2" font-family="sans-serif" font-size="12.0" fill="#333333" text-anchor="middle">1</text><text x="354.0" y="249.2" font-family="sans-serif" font-size="12.0" fill="#333333" text-anchor="middle">0.50</text><text x="438.0" y="249.2" font-family="sans-serif" font-size="12.0" fill="#333333" text-anchor="middle">-0.30</text><text x="102.0" y="331.2" font-family="sans-serif" font-size="12.0" fill="#333333" text-anchor="middle">-0.20</text><text x="186.0" y="331.2" font-family="sans-serif" font-size="12.0" fill="#333333" text-anchor="middle">-0.10</text><text x="270.0" y="331.2" font-family="sans-serif" font-size="12.0" fill="#333333" text-anchor="middle">0.50</text><text x="354.0" y="331.2" font-family="sans-serif" font-size="12.0" fill="#333333" text-anchor="middle">1</text><text x="438.0" y="331.2" font-family="sans-serif" font-size="12.0" fill="#333333" text-anchor="middle">0.60</text><text x="102.0" y="413.2" font-family="sans-serif" font-size="12.0" fill="#333333" text-anchor="middle">0.10</text><text x="186.0" y="413.2" font-family="sans-serif" font-size="12.0" fill="#333333" text-anchor="middle">0.20</text><text x="270.0" y="413.2" font-family="sans-serif" font-size="12.0" fill="#333333" text-anchor="middle">-0.30</text><text x="354.0" y="413.2" font-family="sans-serif" font-size="12.0" fill="#333333" text-anchor="middle">0.60</text><text x="438.0" y="413.2" font-family="sans-serif" font-size="12.0" fill="#333333" text-anchor="middle">1</text><text x="60.0" y="16.0" font-family="sans-serif" font-size="16.0" fill="#333333" text-anchor="start">Correlation Matrix</text><text x="60.0" y="32.0" font-family="sans-serif" font-size="12.0" fill="#666666" text-anchor="start">With value annotations</text></svg>