<svg xmlns="http://www.w3.org/2000/svg" width="640" height="420" viewBox="0 0 640 420"><rect x="0" y="0" width="640" height="420" fill="white"/><line x1="60.257313452970365" y1="40.0" x2="60.257313452970365" y2="370.0" stroke="#e0e0e0" stroke-width="1.0"/><line x1="220.11027719413016" y1="40.0" x2="220.11027719413016" y2="370.0" stroke="#e0e0e0" stroke-width="1.0"/><line x1="379.96324093529006" y1="40.0" x2="379.96324093529006" y2="370.0" stroke="#e0e0e0" stroke-width="1.0"/><line x1="539.8162046764498" y1="40.0" x2="539.8162046764498" y2="370.0" stroke="#e0e0e0" stroke-width="1.0"/><line x1="60.0" y1="370.0" x2="620.0" y2="370.0" stroke="#e0e0e0" stroke-width="1.0"/><line x1="60.0" y1="287.5" x2="620.0" y2="287.5" stroke="#e0e0e0" stroke-width="1.0"/><line x1="60.0" y1="205.0" x2="620.0" y2="205.0" stroke="#e0e0e0" stroke-width="1.0"/><line x1="60.0" y1="122.5" x2="620.0" y2="122.5" stroke="#e0e0e0" stroke-width="1.0"/><line x1="60.0" y1="40.0" x2="620.0" y2="40.0" stroke="#e0e0e0" stroke-width="1.0"/><line x1="60.0" y1="370.0" x2="620.0" y2="370.0" stroke="#333333" stroke-width="1.0"/><line x1="60.0" y1="40.0" x2="60.0" y2="370.0" stroke="#333333" stroke-width="1.0"/><line x1="60.257313452970365" y1="370.0" x2="60.257313452970365" y2="375.0" stroke="#333333" stroke-width="1.0"/><text x="60.257313452970365" y="388.0" font-family="sans-serif" font-size="12.0" fill="#333333" text-anchor="middle">0</text><line x1="220.11027719413016" y1="370.0" x2="220.11027719413016" y2="375.0" stroke="#333333" stroke-width="1.0"/><text x="220.11027719413016" y="388.0" font-family="sans-serif" font-size="12.0" fill="#333333" text-anchor="middle">2</text><line x1="379.96324093529006" y1="370.0" x2="379.96324093529006" y2="375.0" stroke="#333333" stroke-width="1.0"/><text x="379.96324093529006" y="388.0" font-family="sans-serif" font-size="12.0" fill="#333333" text-anchor="middle">4</text><line x1="539.8162046764498" y1="370.0" x2="539.8162046764498" y2="375.0" stroke="#333333" stroke-width="1.0"/><text x="539.8162046764498" y="388.0" font-family="sans-serif" font-size="12.0" fill="#333333" text-anchor="middle">6</text><line x1="55.0" y1="370.0" x2="60.0" y2="370.0" stroke="#333333" stroke-width="1.0"/><text x="52.0" y="374.0" font-family="sans-serif" font-size="12.0" fill="#333333" text-anchor="end">0</text><line x1="55.0" y1="287.5" x2="60.0" y2="287.5" stroke="#333333" stroke-width="1.0"/><text x="52.0" y="291.5" font-family="sans-serif" font-size="12.0" fill="#333333" text-anchor="end">2</text><line x1="55.0" y1="205.0" x2="60.0" y2="205.0" stroke="#333333" stroke-width="1.0"/><text x="52.0" y="209.0" font-family="sans-serif" font-size="12.0" fill="#333333" text-anchor="end">4</text><line x1="55.0" y1="122.5" x2="60.0" y2="122.5" stroke="#333333" stroke-width="1.0"/><text x="52.0" y="126.5" font-family="sans-serif" font-size="12.0" fill="#333333" text-anchor="end">6</text><line x1="55.0" y1="40.0" x2="60.0" y2="40.0" stroke="#333333" stroke-width="1.0"/><text x="52.0" y="44.0" font-family="sans-serif" font-size="12.0" fill="#333333" text-anchor="end">8</text><rect x="156.16909169766626" y="246.25" width="61.27696943411124" height="123.75" fill="#1f77b4" stroke="white" stroke-width="1.0"/><rect x="217.4460611317775" y="81.25" width="61.276969434111294" height="288.75" fill="#1f77b4" stroke="white" stroke-width="1.0"/><rect x="278.7230305658888" y="40.0" width="61.276969434111265" height="330.0" fill="#1f77b4" stroke="white" stroke-width="1.0"/><rect x="340.00000000000006" y="122.5" width="61.27696943411121" height="247.5" fill="#1f77b4" stroke="white" stroke-width="1.0"/><rect x="401.27696943411127" y="205.0" width="61.27696943411132" height="165.0" fill="#1f77b4" stroke="white" stroke-width="1.0"/><rect x="462.5539388682226" y="287.5" width="61.27696943411121" height="82.5" fill="#1f77b4" stroke="white" stroke-width="1.0"/><polyline fill="none" stroke="#ff7f0e" stroke-width="1.5" points="60.0,365.8458871417025 69.49152542372882,363.66157768386125 78.98305084745763,360.6354092046512 88.47457627118645,356.5885830856489 97.96610169491525,351.35827315580497 107.45762711864407,344.8145505343265 116.9491525423729,336.87371729740147 126.4406779661017,327.50479459906 135.9322033898305,316.7274980843578 145.4237288135593,304.60244008014234 154.91525423728814,291.21675950315824 164.40677966101697,276.6699939971042 173.8983050847458,261.0651102912497 183.38983050847457,244.5080810514607 192.8813559322034,227.11674703573803 202.3728813559322,209.03685651945196 211.864406779661,190.46107309190148 221.35593220338984,171.64596053079381 230.84745762711862,152.92250188772474 240.33898305084745,134.69713323183035 249.83050847457628,117.44194638216308 259.32203389830505,101.67417571006268 268.81355932203394,87.92620708031268 278.30508474576266,76.70829399979658 287.7966101694916,68.46715829439398 297.2881355932203,63.5447233161986 306.77966101694915,62.142111927373776 316.271186440678,64.29427575168233 325.7627118644068,69.8597990397912 335.2542372881356,78.52845234076602 344.7457627118644,89.8463077407207 354.23728813559325,103.25535353114572 363.728813559322,118.14230864191777 373.2203389830508,133.89024421291148 382.71186440677974,149.92676751916267 392.20338983050846,165.76362972060934 401.69491525423723,181.02422424234794 411.1864406779661,195.4571517609501 420.67796610169495,208.9356494434122 430.1694915254238,221.44419948358822 439.6610169491526,233.05504856678323 449.15254237288144,243.89855653250663 458.6440677966101,254.13196179952473 468.13559322033893,263.9109975393973 477.6271186440678,273.3677168201873 487.11864406779665,282.5961469649495 496.6101694915254,291.6455668088204 506.1016949152543,300.5199215584848 515.5932203389832,309.18153278714306 525.0847457627119,317.55773556404654 534.5762711864409,325.5498794247561 544.0677966101696,333.044641369694 553.5593220338983,339.9274299575019 563.0508474576271,346.09687435125034 572.542372881356,351.4784572843467 582.0338983050848,356.0348574674523 591.5254237288136,359.77089650113 601.0169491525425,362.73210937404167 610.5084745762712,364.99746866527954 620.0,366.6681254059447"/><text x="60.0" y="16.0" font-family="sans-serif" font-size="16.0" fill="#333333" text-anchor="start">KDE Density Overlay</text><text x="60.0" y="32.0" font-family="sans-serif" font-size="12.0" fill="#666666" text-anchor="start">Histogram with Gaussian kernel density</text><text x="340.0" y="412.0" font-family="sans-serif" font-size="12.0" fill="#333333" text-anchor="middle">Value</text><text x="20.0" y="205.0" font-family="sans-serif" font-size="12.0" fill="#333333" text-anchor="middle" transform="rotate(-90.0 20.0 205.0)">Count</text><rect x="520.0" y="44.0" width="12.0" height="12.0" fill="#1f77b4" stroke="none" stroke-width="0.0"/><text x="538.0" y="55.0" font-family="sans-serif" font-size="12.0" fill="#333333" text-anchor="start">data</text><rect x="520.0" y="62.0" width="12.0" height="12.0" fill="#ff7f0e" stroke="none" stroke-width="0.0"/><text x="538.0" y="73.0" font-family="sans-serif" font-size="12.0" fill="#333333" text-anchor="start">KDE</text></svg>