<svg xmlns="http://www.w3.org/2000/svg" width="640" height="420" viewBox="0 0 640 420"><rect x="0" y="0" width="640" height="420" fill="white"/><line x1="60.0" y1="40.0" x2="60.0" y2="370.0" stroke="#e0e0e0" stroke-width="1.0"/><line x1="314.5454545454545" y1="40.0" x2="314.5454545454545" y2="370.0" stroke="#e0e0e0" stroke-width="1.0"/><line x1="569.090909090909" y1="40.0" x2="569.090909090909" y2="370.0" stroke="#e0e0e0" stroke-width="1.0"/><line x1="60.0" y1="277.79411764705884" x2="620.0" y2="277.79411764705884" stroke="#e0e0e0" stroke-width="1.0"/><line x1="60.0" y1="180.73529411764707" x2="620.0" y2="180.73529411764707" stroke="#e0e0e0" stroke-width="1.0"/><line x1="60.0" y1="83.6764705882353" x2="620.0" y2="83.6764705882353" stroke="#e0e0e0" stroke-width="1.0"/><line x1="60.0" y1="370.0" x2="620.0" y2="370.0" stroke="#333333" stroke-width="1.0"/><line x1="60.0" y1="40.0" x2="60.0" y2="370.0" stroke="#333333" stroke-width="1.0"/><line x1="60.0" y1="370.0" x2="60.0" y2="375.0" stroke="#333333" stroke-width="1.0"/><text x="60.0" y="388.0" font-family="sans-serif" font-size="12.0" fill="#333333" text-anchor="middle">0</text><line x1="314.5454545454545" y1="370.0" x2="314.5454545454545" y2="375.0" stroke="#333333" stroke-width="1.0"/><text x="314.5454545454545" y="388.0" font-family="sans-serif" font-size="12.0" fill="#333333" text-anchor="middle">5</text><line x1="569.090909090909" y1="370.0" x2="569.090909090909" y2="375.0" stroke="#333333" stroke-width="1.0"/><text x="569.090909090909" y="388.0" font-family="sans-serif" font-size="12.0" fill="#333333" text-anchor="middle">10</text><line x1="55.0" y1="277.79411764705884" x2="60.0" y2="277.79411764705884" stroke="#333333" stroke-width="1.0"/><text x="52.0" y="281.79411764705884" font-family="sans-serif" font-size="12.0" fill="#333333" text-anchor="end">4</text><line x1="55.0" y1="180.73529411764707" x2="60.0" y2="180.73529411764707" stroke="#333333" stroke-width="1.0"/><text x="52.0" y="184.73529411764707" font-family="sans-serif" font-size="12.0" fill="#333333" text-anchor="end">6</text><line x1="55.0" y1="83.6764705882353" x2="60.0" y2="83.6764705882353" stroke="#333333" stroke-width="1.0"/><text x="52.0" y="87.6764705882353" font-family="sans-serif" font-size="12.0" fill="#333333" text-anchor="end">8</text><polyline fill="none" stroke="#1f77b4" stroke-width="1.5" points="60.0,370.0 110.9090909090909,336.0294117647059 161.8181818181818,282.64705882352945 212.72727272727272,253.5294117647059 263.6363636363636,219.55882352941177 314.5454545454545,190.44117647058826 365.45454545454544,175.8823529411765 416.3636363636364,141.9117647058824 467.2727272727273,122.50000000000003 518.1818181818182,88.52941176470591 569.090909090909,69.11764705882348 620.0,40.0"/><text x="60.0" y="363.0" font-family="sans-serif" font-size="12.0" fill="#333333" text-anchor="middle">2.10</text><text x="110.9090909090909" y="329.0294117647059" font-family="sans-serif" font-size="12.0" fill="#333333" text-anchor="middle">2.80</text><text x="161.8181818181818" y="275.64705882352945" font-family="sans-serif" font-size="12.0" fill="#333333" text-anchor="middle">3.90</text><text x="212.72727272727272" y="246.5294117647059" font-family="sans-serif" font-size="12.0" fill="#333333" text-anchor="middle">4.50</text><text x="263.6363636363636" y="212.55882352941177" font-family="sans-serif" font-size="12.0" fill="#333333" text-anchor="middle">5.20</text><text x="314.5454545454545" y="183.44117647058826" font-family="sans-serif" font-size="12.0" fill="#333333" text-anchor="middle">5.80</text><text x="365.45454545454544" y="168.8823529411765" font-family="sans-serif" font-size="12.0" fill="#333333" text-anchor="middle">6.10</text><text x="416.3636363636364" y="134.9117647058824" font-family="sans-serif" font-size="12.0" fill="#333333" text-anchor="middle">6.80</text><text x="467.2727272727273" y="115.50000000000003" font-family="sans-serif" font-size="12.0" fill="#333333" text-anchor="middle">7.20</text><text x="518.1818181818182" y="81.52941176470591" font-family="sans-serif" font-size="12.0" fill="#333333" text-anchor="middle">7.90</text><text x="569.090909090909" y="62.11764705882348" font-family="sans-serif" font-size="12.0" fill="#333333" text-anchor="middle">8.30</text><text x="620.0" y="33.0" font-family="sans-serif" font-size="12.0" fill="#333333" text-anchor="middle">8.90</text><text x="60.0" y="16.0" font-family="sans-serif" font-size="16.0" fill="#333333" text-anchor="start">Monthly Trend</text><text x="60.0" y="32.0" font-family="sans-serif" font-size="12.0" fill="#666666" text-anchor="start">Line chart with data labels</text><text x="340.0" y="412.0" font-family="sans-serif" font-size="12.0" fill="#333333" text-anchor="middle">Month</text><text x="20.0" y="205.0" font-family="sans-serif" font-size="12.0" fill="#333333" text-anchor="middle" transform="rotate(-90.0 20.0 205.0)">Value</text></svg>