<svg xmlns="http://www.w3.org/2000/svg" width="640" height="420" viewBox="0 0 640 420"><rect x="0" y="0" width="640" height="420" fill="white"/><line x1="60.0" y1="40.0" x2="60.0" y2="370.0" stroke="#e0e0e0" stroke-width="1.0"/><line x1="314.5454545454545" y1="40.0" x2="314.5454545454545" y2="370.0" stroke="#e0e0e0" stroke-width="1.0"/><line x1="569.090909090909" y1="40.0" x2="569.090909090909" y2="370.0" stroke="#e0e0e0" stroke-width="1.0"/><line x1="60.0" y1="355.4945054945055" x2="620.0" y2="355.4945054945055" stroke="#e0e0e0" stroke-width="1.0"/><line x1="60.0" y1="282.967032967033" x2="620.0" y2="282.967032967033" stroke="#e0e0e0" stroke-width="1.0"/><line x1="60.0" y1="210.4395604395604" x2="620.0" y2="210.4395604395604" stroke="#e0e0e0" stroke-width="1.0"/><line x1="60.0" y1="137.91208791208788" x2="620.0" y2="137.91208791208788" stroke="#e0e0e0" stroke-width="1.0"/><line x1="60.0" y1="65.38461538461536" x2="620.0" y2="65.38461538461536" stroke="#e0e0e0" stroke-width="1.0"/><line x1="60.0" y1="370.0" x2="620.0" y2="370.0" stroke="#333333" stroke-width="1.0"/><line x1="60.0" y1="40.0" x2="60.0" y2="370.0" stroke="#333333" stroke-width="1.0"/><line x1="60.0" y1="370.0" x2="60.0" y2="375.0" stroke="#333333" stroke-width="1.0"/><text x="60.0" y="388.0" font-family="sans-serif" font-size="12.0" fill="#333333" text-anchor="middle">0</text><line x1="314.5454545454545" y1="370.0" x2="314.5454545454545" y2="375.0" stroke="#333333" stroke-width="1.0"/><text x="314.5454545454545" y="388.0" font-family="sans-serif" font-size="12.0" fill="#333333" text-anchor="middle">5</text><line x1="569.090909090909" y1="370.0" x2="569.090909090909" y2="375.0" stroke="#333333" stroke-width="1.0"/><text x="569.090909090909" y="388.0" font-family="sans-serif" font-size="12.0" fill="#333333" text-anchor="middle">10</text><line x1="55.0" y1="355.4945054945055" x2="60.0" y2="355.4945054945055" stroke="#333333" stroke-width="1.0"/><text x="52.0" y="359.4945054945055" font-family="sans-serif" font-size="12.0" fill="#333333" text-anchor="end">2</text><line x1="55.0" y1="282.967032967033" x2="60.0" y2="282.967032967033" stroke="#333333" stroke-width="1.0"/><text x="52.0" y="286.967032967033" font-family="sans-serif" font-size="12.0" fill="#333333" text-anchor="end">4</text><line x1="55.0" y1="210.4395604395604" x2="60.0" y2="210.4395604395604" stroke="#333333" stroke-width="1.0"/><text x="52.0" y="214.4395604395604" font-family="sans-serif" font-size="12.0" fill="#333333" text-anchor="end">6</text><line x1="55.0" y1="137.91208791208788" x2="60.0" y2="137.91208791208788" stroke="#333333" stroke-width="1.0"/><text x="52.0" y="141.91208791208788" font-family="sans-serif" font-size="12.0" fill="#333333" text-anchor="end">8</text><line x1="55.0" y1="65.38461538461536" x2="60.0" y2="65.38461538461536" stroke="#333333" stroke-width="1.0"/><text x="52.0" y="69.38461538461536" font-family="sans-serif" font-size="12.0" fill="#333333" text-anchor="end">10</text><polygon points="60.0,333.7362637362637 110.9090909090909,301.0989010989011 161.8181818181818,253.95604395604397 212.72727272727272,228.57142857142856 263.6363636363636,195.9340659340659 314.5454545454545,174.17582417582415 365.45454545454544,159.67032967032964 416.3636363636364,130.65934065934067 467.2727272727273,112.52747252747253 518.1818181818182,83.5164835164835 569.090909090909,65.38461538461536 620.0,40.0 620.0,170.5494505494505 569.090909090909,188.68131868131866 518.1818181818182,199.5604395604396 467.2727272727273,221.31868131868134 416.3636363636364,232.19780219780216 365.45454545454544,253.95604395604397 314.5454545454545,261.20879120879124 263.6363636363636,282.967032967033 212.72727272727272,301.0989010989011 161.8181818181818,319.2307692307692 110.9090909090909,351.86813186813185 60.0,370.0" fill="#1f77b4" fill-opacity="0.2" stroke="none" stroke-width="0.0"/><polyline fill="none" stroke="#ff7f0e" stroke-width="1.5" points="60.0,351.86813186813185 110.9090909090909,326.4835164835165 161.8181818181818,286.5934065934066 212.72727272727272,264.83516483516485 263.6363636363636,239.45054945054943 314.5454545454545,217.6923076923077 365.45454545454544,206.8131868131868 416.3636363636364,181.42857142857144 467.2727272727273,166.9230769230769 518.1818181818182,141.53846153846152 569.090909090909,127.03296703296698 620.0,105.2747252747252"/><text x="60.0" y="16.0" font-family="sans-serif" font-size="16.0" fill="#333333" text-anchor="start">Monthly Trend with 95% CI</text><text x="340.0" y="412.0" font-family="sans-serif" font-size="12.0" fill="#333333" text-anchor="middle">Month</text><text x="20.0" y="205.0" font-family="sans-serif" font-size="12.0" fill="#333333" text-anchor="middle" transform="rotate(-90.0 20.0 205.0)">Value</text><rect x="520.0" y="44.0" width="12.0" height="12.0" fill="#1f77b4" stroke="none" stroke-width="0.0"/><text x="538.0" y="55.0" font-family="sans-serif" font-size="12.0" fill="#333333" text-anchor="start">95% CI</text><rect x="520.0" y="62.0" width="12.0" height="12.0" fill="#ff7f0e" stroke="none" stroke-width="0.0"/><text x="538.0" y="73.0" font-family="sans-serif" font-size="12.0" fill="#333333" text-anchor="start">mean</text></svg>