<svg xmlns="http://www.w3.org/2000/svg" width="480" height="480" viewBox="0 0 480 480"><rect x="0" y="0" width="480" height="480" fill="white"/><line x1="60.0" y1="40.0" x2="60.0" y2="430.0" stroke="#e0e0e0" stroke-width="1.0"/><line x1="160.0" y1="40.0" x2="160.0" y2="430.0" stroke="#e0e0e0" stroke-width="1.0"/><line x1="260.0" y1="40.0" x2="260.0" y2="430.0" stroke="#e0e0e0" stroke-width="1.0"/><line x1="360.0" y1="40.0" x2="360.0" y2="430.0" stroke="#e0e0e0" stroke-width="1.0"/><line x1="460.0" y1="40.0" x2="460.0" y2="430.0" stroke="#e0e0e0" stroke-width="1.0"/><line x1="60.0" y1="421.1363636363636" x2="460.0" y2="421.1363636363636" stroke="#e0e0e0" stroke-width="1.0"/><line x1="60.0" y1="332.5" x2="460.0" y2="332.5" stroke="#e0e0e0" stroke-width="1.0"/><line x1="60.0" y1="243.86363636363637" x2="460.0" y2="243.86363636363637" stroke="#e0e0e0" stroke-width="1.0"/><line x1="60.0" y1="155.22727272727275" x2="460.0" y2="155.22727272727275" stroke="#e0e0e0" stroke-width="1.0"/><line x1="60.0" y1="66.59090909090918" x2="460.0" y2="66.59090909090918" stroke="#e0e0e0" stroke-width="1.0"/><line x1="60.0" y1="430.0" x2="460.0" y2="430.0" stroke="#333333" stroke-width="1.0"/><line x1="60.0" y1="40.0" x2="60.0" y2="430.0" stroke="#333333" stroke-width="1.0"/><line x1="60.0" y1="430.0" x2="60.0" y2="435.0" stroke="#333333" stroke-width="1.0"/><text x="60.0" y="448.0" font-family="sans-serif" font-size="12.0" fill="#333333" text-anchor="middle">-2</text><line x1="160.0" y1="430.0" x2="160.0" y2="435.0" stroke="#333333" stroke-width="1.0"/><text x="160.0" y="448.0" font-family="sans-serif" font-size="12.0" fill="#333333" text-anchor="middle">-1</text><line x1="260.0" y1="430.0" x2="260.0" y2="435.0" stroke="#333333" stroke-width="1.0"/><text x="260.0" y="448.0" font-family="sans-serif" font-size="12.0" fill="#333333" text-anchor="middle">0</text><line x1="360.0" y1="430.0" x2="360.0" y2="435.0" stroke="#333333" stroke-width="1.0"/><text x="360.0" y="448.0" font-family="sans-serif" font-size="12.0" fill="#333333" text-anchor="middle">1</text><line x1="460.0" y1="430.0" x2="460.0" y2="435.0" stroke="#333333" stroke-width="1.0"/><text x="460.0" y="448.0" font-family="sans-serif" font-size="12.0" fill="#333333" text-anchor="middle">2</text><line x1="55.0" y1="421.1363636363636" x2="60.0" y2="421.1363636363636" stroke="#333333" stroke-width="1.0"/><text x="52.0" y="425.1363636363636" font-family="sans-serif" font-size="12.0" fill="#333333" text-anchor="end">-2</text><line x1="55.0" y1="332.5" x2="60.0" y2="332.5" stroke="#333333" stroke-width="1.0"/><text x="52.0" y="336.5" font-family="sans-serif" font-size="12.0" fill="#333333" text-anchor="end">-1</text><line x1="55.0" y1="243.86363636363637" x2="60.0" y2="243.86363636363637" stroke="#333333" stroke-width="1.0"/><text x="52.0" y="247.86363636363637" font-family="sans-serif" font-size="12.0" fill="#333333" text-anchor="end">0</text><line x1="55.0" y1="155.22727272727275" x2="60.0" y2="155.22727272727275" stroke="#333333" stroke-width="1.0"/><text x="52.0" y="159.22727272727275" font-family="sans-serif" font-size="12.0" fill="#333333" text-anchor="end">1</text><line x1="55.0" y1="66.59090909090918" x2="60.0" y2="66.59090909090918" stroke="#333333" stroke-width="1.0"/><text x="52.0" y="70.59090909090918" font-family="sans-serif" font-size="12.0" fill="#333333" text-anchor="end">2</text><polyline fill="none" stroke="#cccccc" stroke-width="1.5" points="60.0,421.1363636363636 460.0,66.59090909090918"/><circle cx="72.99999999999999" cy="430.0" r="3.0" fill="#ff7f0e" stroke="none" stroke-width="0.0"/><circle cx="120.0" cy="394.54545454545456" r="3.0" fill="#ff7f0e" stroke="none" stroke-width="0.0"/><circle cx="147.0" cy="367.95454545454544" r="3.0" fill="#ff7f0e" stroke="none" stroke-width="0.0"/><circle cx="167.0" cy="350.22727272727275" r="3.0" fill="#ff7f0e" stroke="none" stroke-width="0.0"/><circle cx="184.0" cy="332.5" r="3.0" fill="#ff7f0e" stroke="none" stroke-width="0.0"/><circle cx="200.0" cy="314.7727272727273" r="3.0" fill="#ff7f0e" stroke="none" stroke-width="0.0"/><circle cx="215.0" cy="297.04545454545456" r="3.0" fill="#ff7f0e" stroke="none" stroke-width="0.0"/><circle cx="228.0" cy="279.3181818181818" r="3.0" fill="#ff7f0e" stroke="none" stroke-width="0.0"/><circle cx="242.0" cy="261.5909090909091" r="3.0" fill="#ff7f0e" stroke="none" stroke-width="0.0"/><circle cx="254.0" cy="243.86363636363637" r="3.0" fill="#ff7f0e" stroke="none" stroke-width="0.0"/><circle cx="266.0" cy="235.0" r="3.0" fill="#ff7f0e" stroke="none" stroke-width="0.0"/><circle cx="278.0" cy="217.27272727272728" r="3.0" fill="#ff7f0e" stroke="none" stroke-width="0.0"/><circle cx="292.0" cy="199.5454545454546" r="3.0" fill="#ff7f0e" stroke="none" stroke-width="0.0"/><circle cx="305.0" cy="181.81818181818187" r="3.0" fill="#ff7f0e" stroke="none" stroke-width="0.0"/><circle cx="320.0" cy="164.09090909090912" r="3.0" fill="#ff7f0e" stroke="none" stroke-width="0.0"/><circle cx="336.0" cy="146.36363636363637" r="3.0" fill="#ff7f0e" stroke="none" stroke-width="0.0"/><circle cx="353.0" cy="119.77272727272731" r="3.0" fill="#ff7f0e" stroke="none" stroke-width="0.0"/><circle cx="373.0" cy="102.04545454545456" r="3.0" fill="#ff7f0e" stroke="none" stroke-width="0.0"/><circle cx="400.0" cy="75.45454545454544" r="3.0" fill="#ff7f0e" stroke="none" stroke-width="0.0"/><circle cx="447.0" cy="40.0" r="3.0" fill="#ff7f0e" stroke="none" stroke-width="0.0"/><text x="60.0" y="16.0" font-family="sans-serif" font-size="16.0" fill="#333333" text-anchor="start">Normal Q-Q Plot</text><text x="260.0" y="472.0" font-family="sans-serif" font-size="12.0" fill="#333333" text-anchor="middle">Theoretical quantiles</text><text x="20.0" y="235.0" font-family="sans-serif" font-size="12.0" fill="#333333" text-anchor="middle" transform="rotate(-90.0 20.0 235.0)">Sample quantiles</text><rect x="360.0" y="44.0" width="12.0" height="12.0" fill="#cccccc" stroke="none" stroke-width="0.0"/><text x="378.0" y="55.0" font-family="sans-serif" font-size="12.0" fill="#333333" text-anchor="start">reference</text><rect x="360.0" y="62.0" width="12.0" height="12.0" fill="#ff7f0e" stroke="none" stroke-width="0.0"/><text x="378.0" y="73.0" font-family="sans-serif" font-size="12.0" fill="#333333" text-anchor="start">sample</text></svg>