<svg xmlns="http://www.w3.org/2000/svg" width="640" height="420" viewBox="0 0 640 420"><rect x="0" y="0" width="640" height="420" fill="white"/><line x1="130.0" y1="40.0" x2="130.0" y2="370.0" stroke="#e0e0e0" stroke-width="1.0"/><line x1="270.0" y1="40.0" x2="270.0" y2="370.0" stroke="#e0e0e0" stroke-width="1.0"/><line x1="410.0" y1="40.0" x2="410.0" y2="370.0" stroke="#e0e0e0" stroke-width="1.0"/><line x1="550.0" y1="40.0" x2="550.0" y2="370.0" stroke="#e0e0e0" stroke-width="1.0"/><line x1="60.0" y1="370.0" x2="620.0" y2="370.0" stroke="#e0e0e0" stroke-width="1.0"/><line x1="60.0" y1="275.7142857142857" x2="620.0" y2="275.7142857142857" stroke="#e0e0e0" stroke-width="1.0"/><line x1="60.0" y1="181.42857142857144" x2="620.0" y2="181.42857142857144" stroke="#e0e0e0" stroke-width="1.0"/><line x1="60.0" y1="87.14285714285717" x2="620.0" y2="87.14285714285717" stroke="#e0e0e0" stroke-width="1.0"/><line x1="60.0" y1="370.0" x2="620.0" y2="370.0" stroke="#333333" stroke-width="1.0"/><line x1="60.0" y1="40.0" x2="60.0" y2="370.0" stroke="#333333" stroke-width="1.0"/><line x1="130.0" y1="370.0" x2="130.0" y2="375.0" stroke="#333333" stroke-width="1.0"/><text x="130.0" y="388.0" font-family="sans-serif" font-size="12.0" fill="#333333" text-anchor="middle">Q1</text><line x1="270.0" y1="370.0" x2="270.0" y2="375.0" stroke="#333333" stroke-width="1.0"/><text x="270.0" y="388.0" font-family="sans-serif" font-size="12.0" fill="#333333" text-anchor="middle">Q2</text><line x1="410.0" y1="370.0" x2="410.0" y2="375.0" stroke="#333333" stroke-width="1.0"/><text x="410.0" y="388.0" font-family="sans-serif" font-size="12.0" fill="#333333" text-anchor="middle">Q3</text><line x1="550.0" y1="370.0" x2="550.0" y2="375.0" stroke="#333333" stroke-width="1.0"/><text x="550.0" y="388.0" font-family="sans-serif" font-size="12.0" fill="#333333" text-anchor="middle">Q4</text><line x1="55.0" y1="370.0" x2="60.0" y2="370.0" stroke="#333333" stroke-width="1.0"/><text x="52.0" y="374.0" font-family="sans-serif" font-size="12.0" fill="#333333" text-anchor="end">0</text><line x1="55.0" y1="275.7142857142857" x2="60.0" y2="275.7142857142857" stroke="#333333" stroke-width="1.0"/><text x="52.0" y="279.7142857142857" font-family="sans-serif" font-size="12.0" fill="#333333" text-anchor="end">100</text><line x1="55.0" y1="181.42857142857144" x2="60.0" y2="181.42857142857144" stroke="#333333" stroke-width="1.0"/><text x="52.0" y="185.42857142857144" font-family="sans-serif" font-size="12.0" fill="#333333" text-anchor="end">200</text><line x1="55.0" y1="87.14285714285717" x2="60.0" y2="87.14285714285717" stroke="#333333" stroke-width="1.0"/><text x="52.0" y="91.14285714285717" font-family="sans-serif" font-size="12.0" fill="#333333" text-anchor="end">300</text><rect x="74.0" y="256.8571428571429" width="112.0" height="113.14285714285711" fill="#e41a1c" stroke="none" stroke-width="0.0"/><rect x="74.0" y="176.7142857142857" width="112.0" height="80.1428571428572" fill="#377eb8" stroke="none" stroke-width="0.0"/><rect x="74.0" y="120.14285714285714" width="112.0" height="56.571428571428555" fill="#4daf4a" stroke="none" stroke-width="0.0"/><rect x="214.0" y="233.28571428571428" width="112.0" height="136.71428571428572" fill="#e41a1c" stroke="none" stroke-width="0.0"/><rect x="214.0" y="148.42857142857144" width="112.0" height="84.85714285714283" fill="#377eb8" stroke="none" stroke-width="0.0"/><rect x="214.0" y="77.71428571428572" width="112.0" height="70.71428571428572" fill="#4daf4a" stroke="none" stroke-width="0.0"/><rect x="354.0" y="266.2857142857143" width="112.0" height="103.71428571428572" fill="#e41a1c" stroke="none" stroke-width="0.0"/><rect x="354.0" y="176.7142857142857" width="112.0" height="89.57142857142858" fill="#377eb8" stroke="none" stroke-width="0.0"/><rect x="354.0" y="101.28571428571428" width="112.0" height="75.42857142857142" fill="#4daf4a" stroke="none" stroke-width="0.0"/><rect x="494.0" y="219.14285714285714" width="112.0" height="150.85714285714286" fill="#e41a1c" stroke="none" stroke-width="0.0"/><rect x="494.0" y="124.85714285714286" width="112.0" height="94.28571428571428" fill="#377eb8" stroke="none" stroke-width="0.0"/><rect x="494.0" y="40.0" width="112.0" height="84.85714285714286" fill="#4daf4a" stroke="none" stroke-width="0.0"/><text x="130.0" y="317.62857142857143" font-family="sans-serif" font-size="12.0" fill="#333333" text-anchor="middle">120</text><text x="130.0" y="220.98571428571427" font-family="sans-serif" font-size="12.0" fill="#333333" text-anchor="middle">85</text><text x="130.0" y="152.62857142857143" font-family="sans-serif" font-size="12.0" fill="#333333" text-anchor="middle">60</text><text x="270.0" y="305.8428571428571" font-family="sans-serif" font-size="12.0" fill="#333333" text-anchor="middle">145</text><text x="270.0" y="195.05714285714285" font-family="sans-serif" font-size="12.0" fill="#333333" text-anchor="middle">90</text><text x="270.0" y="117.27142857142856" font-family="sans-serif" font-size="12.0" fill="#333333" text-anchor="middle">75</text><text x="410.0" y="322.34285714285716" font-family="sans-serif" font-size="12.0" fill="#333333" text-anchor="middle">110</text><text x="410.0" y="225.7" font-family="sans-serif" font-size="12.0" fill="#333333" text-anchor="middle">95</text><text x="410.0" y="143.20000000000002" font-family="sans-serif" font-size="12.0" fill="#333333" text-anchor="middle">80</text><text x="550.0" y="298.77142857142854" font-family="sans-serif" font-size="12.0" fill="#333333" text-anchor="middle">160</text><text x="550.0" y="176.2" font-family="sans-serif" font-size="12.0" fill="#333333" text-anchor="middle">100</text><text x="550.0" y="86.62857142857145" font-family="sans-serif" font-size="12.0" fill="#333333" text-anchor="middle">90</text><text x="60.0" y="16.0" font-family="sans-serif" font-size="16.0" fill="#333333" text-anchor="start">Revenue by Segment</text><text x="60.0" y="32.0" font-family="sans-serif" font-size="12.0" fill="#666666" text-anchor="start">Stacked bar with value labels</text><text x="20.0" y="205.0" font-family="sans-serif" font-size="12.0" fill="#333333" text-anchor="middle" transform="rotate(-90.0 20.0 205.0)">Revenue ($k)</text></svg>