<svg xmlns="http://www.w3.org/2000/svg" width="640" height="420" viewBox="0 0 640 420"><rect x="0" y="0" width="640" height="420" fill="white"/><line x1="60.0" y1="40.0" x2="60.0" y2="370.0" stroke="#e0e0e0" stroke-width="1.0"/><line x1="172.0" y1="40.0" x2="172.0" y2="370.0" stroke="#e0e0e0" stroke-width="1.0"/><line x1="284.0" y1="40.0" x2="284.0" y2="370.0" stroke="#e0e0e0" stroke-width="1.0"/><line x1="396.0" y1="40.0" x2="396.0" y2="370.0" stroke="#e0e0e0" stroke-width="1.0"/><line x1="508.0" y1="40.0" x2="508.0" y2="370.0" stroke="#e0e0e0" stroke-width="1.0"/><line x1="620.0" y1="40.0" x2="620.0" y2="370.0" stroke="#e0e0e0" stroke-width="1.0"/><line x1="60.0" y1="322.85714285714283" x2="620.0" y2="322.85714285714283" stroke="#e0e0e0" stroke-width="1.0"/><line x1="60.0" y1="228.57142857142853" x2="620.0" y2="228.57142857142853" stroke="#e0e0e0" stroke-width="1.0"/><line x1="60.0" y1="134.28571428571428" x2="620.0" y2="134.28571428571428" stroke="#e0e0e0" stroke-width="1.0"/><line x1="60.0" y1="40.0" x2="620.0" y2="40.0" stroke="#e0e0e0" stroke-width="1.0"/><line x1="60.0" y1="370.0" x2="620.0" y2="370.0" stroke="#333333" stroke-width="1.0"/><line x1="60.0" y1="40.0" x2="60.0" y2="370.0" stroke="#333333" stroke-width="1.0"/><line x1="60.0" y1="370.0" x2="60.0" y2="375.0" stroke="#333333" stroke-width="1.0"/><text x="60.0" y="388.0" font-family="sans-serif" font-size="12.0" fill="#333333" text-anchor="middle">0</text><line x1="172.0" y1="370.0" x2="172.0" y2="375.0" stroke="#333333" stroke-width="1.0"/><text x="172.0" y="388.0" font-family="sans-serif" font-size="12.0" fill="#333333" text-anchor="middle">2</text><line x1="284.0" y1="370.0" x2="284.0" y2="375.0" stroke="#333333" stroke-width="1.0"/><text x="284.0" y="388.0" font-family="sans-serif" font-size="12.0" fill="#333333" text-anchor="middle">4</text><line x1="396.0" y1="370.0" x2="396.0" y2="375.0" stroke="#333333" stroke-width="1.0"/><text x="396.0" y="388.0" font-family="sans-serif" font-size="12.0" fill="#333333" text-anchor="middle">6</text><line x1="508.0" y1="370.0" x2="508.0" y2="375.0" stroke="#333333" stroke-width="1.0"/><text x="508.0" y="388.0" font-family="sans-serif" font-size="12.0" fill="#333333" text-anchor="middle">8</text><line x1="620.0" y1="370.0" x2="620.0" y2="375.0" stroke="#333333" stroke-width="1.0"/><text x="620.0" y="388.0" font-family="sans-serif" font-size="12.0" fill="#333333" text-anchor="middle">10</text><line x1="55.0" y1="322.85714285714283" x2="60.0" y2="322.85714285714283" stroke="#333333" stroke-width="1.0"/><text x="52.0" y="326.85714285714283" font-family="sans-serif" font-size="12.0" fill="#333333" text-anchor="end">0.40</text><line x1="55.0" y1="228.57142857142853" x2="60.0" y2="228.57142857142853" stroke="#333333" stroke-width="1.0"/><text x="52.0" y="232.57142857142853" font-family="sans-serif" font-size="12.0" fill="#333333" text-anchor="end">0.60</text><line x1="55.0" y1="134.28571428571428" x2="60.0" y2="134.28571428571428" stroke="#333333" stroke-width="1.0"/><text x="52.0" y="138.28571428571428" font-family="sans-serif" font-size="12.0" fill="#333333" text-anchor="end">0.80</text><line x1="55.0" y1="40.0" x2="60.0" y2="40.0" stroke="#333333" stroke-width="1.0"/><text x="52.0" y="44.0" font-family="sans-serif" font-size="12.0" fill="#333333" text-anchor="end">1</text><line x1="60.0" y1="275.7142857142857" x2="620.0" y2="275.7142857142857" stroke="#333333" stroke-width="1.0"/><line x1="60.0" y1="40.0" x2="116.0" y2="40.0" stroke="#1f77b4" stroke-width="1.5"/><line x1="116.0" y1="40.0" x2="116.0" y2="63.57142857142861" stroke="#1f77b4" stroke-width="1.5"/><line x1="116.0" y1="63.57142857142861" x2="172.0" y2="63.57142857142861" stroke="#1f77b4" stroke-width="1.5"/><line x1="172.0" y1="63.57142857142861" x2="172.0" y2="96.5714285714285" stroke="#1f77b4" stroke-width="1.5"/><line x1="172.0" y1="96.5714285714285" x2="228.0" y2="96.5714285714285" stroke="#1f77b4" stroke-width="1.5"/><line x1="228.0" y1="96.5714285714285" x2="228.0" y2="138.99999999999997" stroke="#1f77b4" stroke-width="1.5"/><line x1="228.0" y1="138.99999999999997" x2="284.0" y2="138.99999999999997" stroke="#1f77b4" stroke-width="1.5"/><line x1="284.0" y1="138.99999999999997" x2="284.0" y2="176.7142857142857" stroke="#1f77b4" stroke-width="1.5"/><line x1="284.0" y1="176.7142857142857" x2="340.0" y2="176.7142857142857" stroke="#1f77b4" stroke-width="1.5"/><line x1="340.0" y1="176.7142857142857" x2="340.0" y2="214.42857142857142" stroke="#1f77b4" stroke-width="1.5"/><line x1="340.0" y1="214.42857142857142" x2="396.0" y2="214.42857142857142" stroke="#1f77b4" stroke-width="1.5"/><line x1="396.0" y1="214.42857142857142" x2="396.0" y2="252.1428571428571" stroke="#1f77b4" stroke-width="1.5"/><line x1="396.0" y1="252.1428571428571" x2="452.0" y2="252.1428571428571" stroke="#1f77b4" stroke-width="1.5"/><line x1="452.0" y1="252.1428571428571" x2="452.0" y2="285.1428571428571" stroke="#1f77b4" stroke-width="1.5"/><line x1="452.0" y1="285.1428571428571" x2="508.0" y2="285.1428571428571" stroke="#1f77b4" stroke-width="1.5"/><line x1="508.0" y1="285.1428571428571" x2="508.0" y2="318.14285714285717" stroke="#1f77b4" stroke-width="1.5"/><line x1="508.0" y1="318.14285714285717" x2="564.0" y2="318.14285714285717" stroke="#1f77b4" stroke-width="1.5"/><line x1="564.0" y1="318.14285714285717" x2="564.0" y2="346.42857142857144" stroke="#1f77b4" stroke-width="1.5"/><line x1="564.0" y1="346.42857142857144" x2="620.0" y2="346.42857142857144" stroke="#1f77b4" stroke-width="1.5"/><line x1="620.0" y1="346.42857142857144" x2="620.0" y2="370.0" stroke="#1f77b4" stroke-width="1.5"/><line x1="60.0" y1="40.0" x2="116.0" y2="40.0" stroke="#ff7f0e" stroke-width="1.5"/><line x1="116.0" y1="40.0" x2="116.0" y2="49.428571428571445" stroke="#ff7f0e" stroke-width="1.5"/><line x1="116.0" y1="49.428571428571445" x2="172.0" y2="49.428571428571445" stroke="#ff7f0e" stroke-width="1.5"/><line x1="172.0" y1="49.428571428571445" x2="172.0" y2="68.28571428571428" stroke="#ff7f0e" stroke-width="1.5"/><line x1="172.0" y1="68.28571428571428" x2="228.0" y2="68.28571428571428" stroke="#ff7f0e" stroke-width="1.5"/><line x1="228.0" y1="68.28571428571428" x2="228.0" y2="91.85714285714283" stroke="#ff7f0e" stroke-width="1.5"/><line x1="228.0" y1="91.85714285714283" x2="284.0" y2="91.85714285714283" stroke="#ff7f0e" stroke-width="1.5"/><line x1="284.0" y1="91.85714285714283" x2="284.0" y2="120.14285714285711" stroke="#ff7f0e" stroke-width="1.5"/><line x1="284.0" y1="120.14285714285711" x2="340.0" y2="120.14285714285711" stroke="#ff7f0e" stroke-width="1.5"/><line x1="340.0" y1="120.14285714285711" x2="340.0" y2="148.42857142857142" stroke="#ff7f0e" stroke-width="1.5"/><line x1="340.0" y1="148.42857142857142" x2="396.0" y2="148.42857142857142" stroke="#ff7f0e" stroke-width="1.5"/><line x1="396.0" y1="148.42857142857142" x2="396.0" y2="176.7142857142857" stroke="#ff7f0e" stroke-width="1.5"/><line x1="396.0" y1="176.7142857142857" x2="452.0" y2="176.7142857142857" stroke="#ff7f0e" stroke-width="1.5"/><line x1="452.0" y1="176.7142857142857" x2="452.0" y2="204.99999999999997" stroke="#ff7f0e" stroke-width="1.5"/><line x1="452.0" y1="204.99999999999997" x2="508.0" y2="204.99999999999997" stroke="#ff7f0e" stroke-width="1.5"/><line x1="508.0" y1="204.99999999999997" x2="508.0" y2="233.2857142857143" stroke="#ff7f0e" stroke-width="1.5"/><line x1="508.0" y1="233.2857142857143" x2="564.0" y2="233.2857142857143" stroke="#ff7f0e" stroke-width="1.5"/><line x1="564.0" y1="233.2857142857143" x2="564.0" y2="261.57142857142856" stroke="#ff7f0e" stroke-width="1.5"/><line x1="564.0" y1="261.57142857142856" x2="620.0" y2="261.57142857142856" stroke="#ff7f0e" stroke-width="1.5"/><line x1="620.0" y1="261.57142857142856" x2="620.0" y2="289.8571428571429" stroke="#ff7f0e" stroke-width="1.5"/><text x="60.0" y="16.0" font-family="sans-serif" font-size="16.0" fill="#333333" text-anchor="start">Survival Curves</text><text x="60.0" y="32.0" font-family="sans-serif" font-size="12.0" fill="#666666" text-anchor="start">Kaplan-Meier estimate</text><text x="340.0" y="412.0" font-family="sans-serif" font-size="12.0" fill="#333333" text-anchor="middle">Time (months)</text><text x="20.0" y="205.0" font-family="sans-serif" font-size="12.0" fill="#333333" text-anchor="middle" transform="rotate(-90.0 20.0 205.0)">Survival probability</text><rect x="520.0" y="44.0" width="12.0" height="12.0" fill="#1f77b4" stroke="none" stroke-width="0.0"/><text x="538.0" y="55.0" font-family="sans-serif" font-size="12.0" fill="#333333" text-anchor="start">Control</text><rect x="520.0" y="62.0" width="12.0" height="12.0" fill="#ff7f0e" stroke="none" stroke-width="0.0"/><text x="538.0" y="73.0" font-family="sans-serif" font-size="12.0" fill="#333333" text-anchor="start">Treatment</text></svg>