<svg xmlns="http://www.w3.org/2000/svg" width="640" height="420" viewBox="0 0 640 420"><rect x="0" y="0" width="640" height="420" fill="white"/><line x1="164.18604651162792" y1="40.0" x2="164.18604651162792" y2="370.0" stroke="#e0e0e0" stroke-width="1.0"/><line x1="294.4186046511628" y1="40.0" x2="294.4186046511628" y2="370.0" stroke="#e0e0e0" stroke-width="1.0"/><line x1="424.6511627906977" y1="40.0" x2="424.6511627906977" y2="370.0" stroke="#e0e0e0" stroke-width="1.0"/><line x1="554.8837209302326" y1="40.0" x2="554.8837209302326" y2="370.0" stroke="#e0e0e0" stroke-width="1.0"/><line x1="60.0" y1="317.89473684210526" x2="620.0" y2="317.89473684210526" stroke="#e0e0e0" stroke-width="1.0"/><line x1="60.0" y1="248.42105263157893" x2="620.0" y2="248.42105263157893" stroke="#e0e0e0" stroke-width="1.0"/><line x1="60.0" y1="178.94736842105263" x2="620.0" y2="178.94736842105263" stroke="#e0e0e0" stroke-width="1.0"/><line x1="60.0" y1="109.4736842105263" x2="620.0" y2="109.4736842105263" stroke="#e0e0e0" stroke-width="1.0"/><line x1="60.0" y1="40.0" x2="620.0" y2="40.0" stroke="#e0e0e0" stroke-width="1.0"/><line x1="60.0" y1="370.0" x2="620.0" y2="370.0" stroke="#333333" stroke-width="1.0"/><line x1="60.0" y1="40.0" x2="60.0" y2="370.0" stroke="#333333" stroke-width="1.0"/><line x1="164.18604651162792" y1="370.0" x2="164.18604651162792" y2="375.0" stroke="#333333" stroke-width="1.0"/><text x="164.18604651162792" y="388.0" font-family="sans-serif" font-size="12.0" fill="#333333" text-anchor="middle">30</text><line x1="294.4186046511628" y1="370.0" x2="294.4186046511628" y2="375.0" stroke="#333333" stroke-width="1.0"/><text x="294.4186046511628" y="388.0" font-family="sans-serif" font-size="12.0" fill="#333333" text-anchor="middle">40</text><line x1="424.6511627906977" y1="370.0" x2="424.6511627906977" y2="375.0" stroke="#333333" stroke-width="1.0"/><text x="424.6511627906977" y="388.0" font-family="sans-serif" font-size="12.0" fill="#333333" text-anchor="middle">50</text><line x1="554.8837209302326" y1="370.0" x2="554.8837209302326" y2="375.0" stroke="#333333" stroke-width="1.0"/><text x="554.8837209302326" y="388.0" font-family="sans-serif" font-size="12.0" fill="#333333" text-anchor="middle">60</text><line x1="55.0" y1="317.89473684210526" x2="60.0" y2="317.89473684210526" stroke="#333333" stroke-width="1.0"/><text x="52.0" y="321.89473684210526" font-family="sans-serif" font-size="12.0" fill="#333333" text-anchor="end">0.20</text><line x1="55.0" y1="248.42105263157893" x2="60.0" y2="248.42105263157893" stroke="#333333" stroke-width="1.0"/><text x="52.0" y="252.42105263157893" font-family="sans-serif" font-size="12.0" fill="#333333" text-anchor="end">0.40</text><line x1="55.0" y1="178.94736842105263" x2="60.0" y2="178.94736842105263" stroke="#333333" stroke-width="1.0"/><text x="52.0" y="182.94736842105263" font-family="sans-serif" font-size="12.0" fill="#333333" text-anchor="end">0.60</text><line x1="55.0" y1="109.4736842105263" x2="60.0" y2="109.4736842105263" stroke="#333333" stroke-width="1.0"/><text x="52.0" y="113.4736842105263" font-family="sans-serif" font-size="12.0" fill="#333333" text-anchor="end">0.80</text><line x1="55.0" y1="40.0" x2="60.0" y2="40.0" stroke="#333333" stroke-width="1.0"/><text x="52.0" y="44.0" font-family="sans-serif" font-size="12.0" fill="#333333" text-anchor="end">1</text><line x1="60.0" y1="370.0" x2="99.06976744186046" y2="370.0" stroke="#1f77b4" stroke-width="1.5"/><line x1="99.06976744186046" y1="370.0" x2="99.06976744186046" y2="352.63157894736844" stroke="#1f77b4" stroke-width="1.5"/><line x1="99.06976744186046" y1="352.63157894736844" x2="125.11627906976744" y2="352.63157894736844" stroke="#1f77b4" stroke-width="1.5"/><line x1="125.11627906976744" y1="352.63157894736844" x2="125.11627906976744" y2="335.2631578947368" stroke="#1f77b4" stroke-width="1.5"/><line x1="125.11627906976744" y1="335.2631578947368" x2="138.13953488372093" y2="335.2631578947368" stroke="#1f77b4" stroke-width="1.5"/><line x1="138.13953488372093" y1="335.2631578947368" x2="138.13953488372093" y2="317.89473684210526" stroke="#1f77b4" stroke-width="1.5"/><line x1="138.13953488372093" y1="317.89473684210526" x2="164.18604651162792" y2="317.89473684210526" stroke="#1f77b4" stroke-width="1.5"/><line x1="164.18604651162792" y1="317.89473684210526" x2="164.18604651162792" y2="300.5263157894737" stroke="#1f77b4" stroke-width="1.5"/><line x1="164.18604651162792" y1="300.5263157894737" x2="177.2093023255814" y2="300.5263157894737" stroke="#1f77b4" stroke-width="1.5"/><line x1="177.2093023255814" y1="300.5263157894737" x2="177.2093023255814" y2="283.1578947368421" stroke="#1f77b4" stroke-width="1.5"/><line x1="177.2093023255814" y1="283.1578947368421" x2="177.2093023255814" y2="283.1578947368421" stroke="#1f77b4" stroke-width="1.5"/><line x1="177.2093023255814" y1="283.1578947368421" x2="177.2093023255814" y2="265.7894736842105" stroke="#1f77b4" stroke-width="1.5"/><line x1="177.2093023255814" y1="265.7894736842105" x2="203.25581395348837" y2="265.7894736842105" stroke="#1f77b4" stroke-width="1.5"/><line x1="203.25581395348837" y1="265.7894736842105" x2="203.25581395348837" y2="248.42105263157893" stroke="#1f77b4" stroke-width="1.5"/><line x1="203.25581395348837" y1="248.42105263157893" x2="229.30232558139534" y2="248.42105263157893" stroke="#1f77b4" stroke-width="1.5"/><line x1="229.30232558139534" y1="248.42105263157893" x2="229.30232558139534" y2="231.05263157894737" stroke="#1f77b4" stroke-width="1.5"/><line x1="229.30232558139534" y1="231.05263157894737" x2="242.32558139534885" y2="231.05263157894737" stroke="#1f77b4" stroke-width="1.5"/><line x1="242.32558139534885" y1="231.05263157894737" x2="242.32558139534885" y2="213.68421052631578" stroke="#1f77b4" stroke-width="1.5"/><line x1="242.32558139534885" y1="213.68421052631578" x2="268.37209302325584" y2="213.68421052631578" stroke="#1f77b4" stroke-width="1.5"/><line x1="268.37209302325584" y1="213.68421052631578" x2="268.37209302325584" y2="196.31578947368422" stroke="#1f77b4" stroke-width="1.5"/><line x1="268.37209302325584" y1="196.31578947368422" x2="281.3953488372093" y2="196.31578947368422" stroke="#1f77b4" stroke-width="1.5"/><line x1="281.3953488372093" y1="196.31578947368422" x2="281.3953488372093" y2="178.94736842105266" stroke="#1f77b4" stroke-width="1.5"/><line x1="281.3953488372093" y1="178.94736842105266" x2="294.4186046511628" y2="178.94736842105266" stroke="#1f77b4" stroke-width="1.5"/><line x1="294.4186046511628" y1="178.94736842105266" x2="294.4186046511628" y2="161.57894736842107" stroke="#1f77b4" stroke-width="1.5"/><line x1="294.4186046511628" y1="161.57894736842107" x2="320.4651162790698" y2="161.57894736842107" stroke="#1f77b4" stroke-width="1.5"/><line x1="320.4651162790698" y1="161.57894736842107" x2="320.4651162790698" y2="144.2105263157895" stroke="#1f77b4" stroke-width="1.5"/><line x1="320.4651162790698" y1="144.2105263157895" x2="359.5348837209302" y2="144.2105263157895" stroke="#1f77b4" stroke-width="1.5"/><line x1="359.5348837209302" y1="144.2105263157895" x2="359.5348837209302" y2="126.84210526315792" stroke="#1f77b4" stroke-width="1.5"/><line x1="359.5348837209302" y1="126.84210526315792" x2="398.6046511627907" y2="126.84210526315792" stroke="#1f77b4" stroke-width="1.5"/><line x1="398.6046511627907" y1="126.84210526315792" x2="398.6046511627907" y2="109.4736842105263" stroke="#1f77b4" stroke-width="1.5"/><line x1="398.6046511627907" y1="109.4736842105263" x2="424.6511627906977" y2="109.4736842105263" stroke="#1f77b4" stroke-width="1.5"/><line x1="424.6511627906977" y1="109.4736842105263" x2="424.6511627906977" y2="92.10526315789474" stroke="#1f77b4" stroke-width="1.5"/><line x1="424.6511627906977" y1="92.10526315789474" x2="463.7209302325581" y2="92.10526315789474" stroke="#1f77b4" stroke-width="1.5"/><line x1="463.7209302325581" y1="92.10526315789474" x2="463.7209302325581" y2="74.73684210526318" stroke="#1f77b4" stroke-width="1.5"/><line x1="463.7209302325581" y1="74.73684210526318" x2="515.8139534883721" y2="74.73684210526318" stroke="#1f77b4" stroke-width="1.5"/><line x1="515.8139534883721" y1="74.73684210526318" x2="515.8139534883721" y2="57.36842105263162" stroke="#1f77b4" stroke-width="1.5"/><line x1="515.8139534883721" y1="57.36842105263162" x2="620.0" y2="57.36842105263162" stroke="#1f77b4" stroke-width="1.5"/><line x1="620.0" y1="57.36842105263162" x2="620.0" y2="40.0" stroke="#1f77b4" stroke-width="1.5"/><text x="60.0" y="16.0" font-family="sans-serif" font-size="16.0" fill="#333333" text-anchor="start">Empirical CDF</text><text x="340.0" y="412.0" font-family="sans-serif" font-size="12.0" fill="#333333" text-anchor="middle">Age</text><text x="20.0" y="205.0" font-family="sans-serif" font-size="12.0" fill="#333333" text-anchor="middle" transform="rotate(-90.0 20.0 205.0)">Cumulative probability</text></svg>