<svg xmlns="http://www.w3.org/2000/svg" width="640" height="420" viewBox="0 0 640 420"><rect x="0" y="0" width="640" height="420" fill="white"/><line x1="130.0" y1="40.0" x2="130.0" y2="370.0" stroke="#e0e0e0" stroke-width="1.0"/><line x1="270.0" y1="40.0" x2="270.0" y2="370.0" stroke="#e0e0e0" stroke-width="1.0"/><line x1="410.0" y1="40.0" x2="410.0" y2="370.0" stroke="#e0e0e0" stroke-width="1.0"/><line x1="550.0" y1="40.0" x2="550.0" y2="370.0" stroke="#e0e0e0" stroke-width="1.0"/><line x1="60.0" y1="353.26398606288194" x2="620.0" y2="353.26398606288194" stroke="#e0e0e0" stroke-width="1.0"/><line x1="60.0" y1="204.99999999999997" x2="620.0" y2="204.99999999999997" stroke="#e0e0e0" stroke-width="1.0"/><line x1="60.0" y1="56.73601393711806" x2="620.0" y2="56.73601393711806" stroke="#e0e0e0" stroke-width="1.0"/><line x1="60.0" y1="370.0" x2="620.0" y2="370.0" stroke="#333333" stroke-width="1.0"/><line x1="60.0" y1="40.0" x2="60.0" y2="370.0" stroke="#333333" stroke-width="1.0"/><line x1="130.0" y1="370.0" x2="130.0" y2="375.0" stroke="#333333" stroke-width="1.0"/><text x="130.0" y="388.0" font-family="sans-serif" font-size="12.0" fill="#333333" text-anchor="middle">0</text><line x1="270.0" y1="370.0" x2="270.0" y2="375.0" stroke="#333333" stroke-width="1.0"/><text x="270.0" y="388.0" font-family="sans-serif" font-size="12.0" fill="#333333" text-anchor="middle">1</text><line x1="410.0" y1="370.0" x2="410.0" y2="375.0" stroke="#333333" stroke-width="1.0"/><text x="410.0" y="388.0" font-family="sans-serif" font-size="12.0" fill="#333333" text-anchor="middle">2</text><line x1="550.0" y1="370.0" x2="550.0" y2="375.0" stroke="#333333" stroke-width="1.0"/><text x="550.0" y="388.0" font-family="sans-serif" font-size="12.0" fill="#333333" text-anchor="middle">3</text><line x1="55.0" y1="353.26398606288194" x2="60.0" y2="353.26398606288194" stroke="#333333" stroke-width="1.0"/><text x="52.0" y="357.26398606288194" font-family="sans-serif" font-size="12.0" fill="#333333" text-anchor="end">0</text><line x1="55.0" y1="204.99999999999997" x2="60.0" y2="204.99999999999997" stroke="#333333" stroke-width="1.0"/><text x="52.0" y="208.99999999999997" font-family="sans-serif" font-size="12.0" fill="#333333" text-anchor="end">50</text><line x1="55.0" y1="56.73601393711806" x2="60.0" y2="56.73601393711806" stroke="#333333" stroke-width="1.0"/><text x="52.0" y="60.73601393711806" font-family="sans-serif" font-size="12.0" fill="#333333" text-anchor="end">100</text><polygon points="128.5455354684278,236.73882173990464 127.83913566661623,235.14078006467815 126.88611565144029,233.54273838945164 125.64449981054732,231.9446967142252 124.08188841999049,230.34665503899873 122.181368814252,228.74861336377222 119.94636013703614,227.15057168854577 117.40322021682071,225.55253001331926 114.60070577900007,223.9544883380928 111.6059250898554,222.35644666286632 108.497155499495,220.75840498763984 105.35464690395264,219.16036331241338 102.25109691559221,217.56232163718687 99.2436917852894,215.9642799619604 96.36936533847928,214.36623828673393 93.64425853972247,212.76819661150742 91.067410652512,211.17015493628097 88.62772106130552,209.57211326105445 86.31246351844274,207.974071585828 84.11533529865271,206.37602991060155 82.04227462173003,204.77798823537503 80.1139988272666,203.17994656014855 78.36516572000471,201.58190488492207 76.8409289166695,199.9838632096956 75.5921723603075,198.38582153446913 74.67073830817326,196.78777985924262 74.12556169840639,195.18973818401616 74.0,193.59169650878968 74.33006986504161,191.9936548335632 75.14298747287836,190.39561315833674 76.455443881893,188.7975714831102 78.27136523110453,187.19952980788375 80.57934087202148,185.60148813265727 83.35025956293245,184.00344645743078 86.53584272814308,182.40540478220433 90.06867452268509,180.80736310697785 93.86406525149113,179.2093214317514 97.82375848830517,177.61127975652485 101.84120259450188,176.0132380812984 105.8079042132806,174.4151964060719 109.62026260605265,172.81715473084543 113.18622279311316,171.21911305561898 116.43106642824917,169.6210713803925 119.30169536730412,168.02302970516598 121.76888666326826,166.42498802993953 123.82723162526608,164.82694635471304 125.4927988164503,163.22890467948656 126.7989175048128,161.63086300426008 127.79077264823746,160.03282132903362 128.51965286889484,158.43477965380708 131.48034713110516,158.43477965380708 132.20922735176254,160.03282132903362 133.2010824951872,161.63086300426008 134.50720118354968,163.22890467948656 136.17276837473392,164.82694635471304 138.23111333673174,166.42498802993953 140.69830463269588,168.02302970516598 143.56893357175085,169.6210713803925 146.81377720688684,171.21911305561898 150.37973739394735,172.81715473084543 154.19209578671942,174.4151964060719 158.15879740549812,176.0132380812984 162.17624151169483,177.61127975652485 166.13593474850887,179.2093214317514 169.9313254773149,180.80736310697785 173.46415727185692,182.40540478220433 176.64974043706755,184.00344645743078 179.42065912797852,185.60148813265727 181.72863476889546,187.19952980788375 183.54455611810698,188.7975714831102 184.85701252712164,190.39561315833674 185.6699301349584,191.9936548335632 186.0,193.59169650878968 185.8744383015936,195.18973818401616 185.32926169182673,196.78777985924262 184.4078276396925,198.38582153446913 183.1590710833305,199.9838632096956 181.6348342799953,201.58190488492207 179.88600117273342,203.17994656014855 177.95772537826997,204.77798823537503 175.88466470134728,206.37602991060155 173.68753648155726,207.974071585828 171.37227893869448,209.57211326105445 168.932589347488,211.17015493628097 166.35574146027753,212.76819661150742 163.63063466152073,214.36623828673393 160.7563082147106,215.9642799619604 157.74890308440777,217.56232163718687 154.64535309604736,219.16036331241338 151.502844500505,220.75840498763984 148.39407491014458,222.35644666286632 145.39929422099993,223.9544883380928 142.59677978317927,225.55253001331926 140.05363986296385,227.15057168854577 137.81863118574802,228.74861336377222 135.9181115800095,230.34665503899873 134.3555001894527,231.9446967142252 133.1138843485597,233.54273838945164 132.16086433338376,235.14078006467815 131.4544645315722,236.73882173990464" fill="#1f77b4" fill-opacity="0.5" stroke="#1f77b4" stroke-width="1.0"/><polygon points="268.36688077799323,370.0 267.63596439012866,363.265306122449 266.66754893760395,356.53061224489795 265.42242844942194,349.7959183673469 263.8682859288387,343.0612244897959 261.98428806741583,336.3265306122449 259.7652873710959,329.59183673469386 257.22498935692767,322.85714285714283 254.39752743886945,316.1224489795918 251.33706368948057,309.3877551020408 248.11525849500728,302.65306122448976 244.81668479755152,295.9183673469388 241.53248036291848,289.1836734693877 238.35273589364493,282.44897959183675 235.3583208962796,275.7142857142857 232.61305184624712,268.9795918367347 230.15726998547296,262.2448979591837 228.00394095156395,255.51020408163262 226.13822448168534,248.77551020408157 224.52103456071637,242.04081632653057 223.09644658264608,235.30612244897952 221.8020378441251,228.57142857142856 220.58057448102724,221.83673469387753 219.3910908500709,215.1020408163265 218.21747857568363,208.36734693877548 217.0732083604787,201.63265306122446 216.0016021115424,194.89795918367344 215.07191947050563,188.16326530612244 214.3721840011686,181.42857142857142 214.0,174.69387755102036 214.0525877143495,167.9591836734694 214.61700633925366,161.22448979591832 215.7612196776014,154.48979591836732 217.52644902387786,147.7551020408163 219.9212233375756,141.02040816326524 222.917635593597,134.28571428571425 226.45041680801594,127.55102040816323 230.41939488357977,120.81632653061223 234.69561664388087,114.08163265306115 239.1308850953266,107.34693877551018 243.56981760665792,100.61224489795916 247.86295227063206,93.87755102040813 251.87910795248723,87.14285714285711 255.51525751575755,80.40816326530609 258.7026091965797,73.67346938775506 261.4082992165519,66.93877551020404 263.6328952243833,60.20408163265307 265.40459770629474,53.469387755101934 266.7714556515939,46.73469387755097 267.7930202825074,40.0 272.2069797174926,40.0 273.2285443484061,46.73469387755097 274.59540229370526,53.469387755101934 276.3671047756167,60.20408163265307 278.5917007834481,66.93877551020404 281.2973908034203,73.67346938775506 284.4847424842424,80.40816326530609 288.12089204751277,87.14285714285711 292.1370477293679,93.87755102040813 296.4301823933421,100.61224489795916 300.86911490467344,107.34693877551018 305.30438335611916,114.08163265306115 309.58060511642026,120.81632653061223 313.5495831919841,127.55102040816323 317.08236440640303,134.28571428571425 320.0787766624244,141.02040816326524 322.47355097612217,147.7551020408163 324.2387803223986,154.48979591836732 325.38299366074637,161.22448979591832 325.9474122856505,167.9591836734694 326.0,174.69387755102036 325.6278159988314,181.42857142857142 324.92808052949437,188.16326530612244 323.9983978884576,194.89795918367344 322.9267916395213,201.63265306122446 321.78252142431637,208.36734693877548 320.6089091499291,215.1020408163265 319.41942551897273,221.83673469387753 318.1979621558749,228.57142857142856 316.9035534173539,235.30612244897952 315.4789654392836,242.04081632653057 313.86177551831463,248.77551020408157 311.99605904843605,255.51020408163262 309.84273001452704,262.2448979591837 307.3869481537529,268.9795918367347 304.64167910372043,275.7142857142857 301.64726410635507,282.44897959183675 298.4675196370815,289.1836734693877 295.1833152024485,295.9183673469388 291.88474150499275,302.65306122448976 288.66293631051946,309.3877551020408 285.6024725611305,316.1224489795918 282.77501064307233,322.85714285714283 280.2347126289041,329.59183673469386 278.01571193258417,336.3265306122449 276.1317140711613,343.0612244897959 274.57757155057806,349.7959183673469 273.33245106239605,356.53061224489795 272.36403560987134,363.265306122449 271.63311922200677,370.0" fill="#ff7f0e" fill-opacity="0.5" stroke="#ff7f0e" stroke-width="1.0"/><polygon points="407.2593214816262,315.1840516606382 405.91589251779743,310.6867434295918 404.0858078231396,306.1894351985453 401.6769245677404,301.69212696749884 398.6160212205996,297.19481873645236 394.86581148426217,292.69751050540594 390.4424771603654,288.20020227435947 385.430533022614,283.702894043313 379.99136700312386,279.2055858122666 374.3620943731086,274.7082775812201 368.84256701382844,270.2109693501736 363.77039386215176,265.71366111912715 359.4862968203578,261.2163528880807 356.2944822266797,256.71904465703426 354.42432157919524,252.22173642598779 354.0,247.72442819494137 355.0236942790797,243.2271199638949 357.37545637122525,238.72981173284845 360.8298323100161,234.232503501802 365.08608516602743,229.7351952707555 369.8064627376235,225.23788703970905 374.6557999704265,220.74057880866258 379.33607092731546,216.24327057761613 383.6111256116748,211.74596234656968 387.3192807656486,207.24865411552324 390.37404628251073,202.7513458844768 392.75544681371457,198.25403765343034 394.49569811445207,193.7567294223838 395.66323625036523,189.25942119133737 396.3483699908037,184.7621129602909 396.6524566896265,180.26480472924445 396.680942526169,175.767496498198 396.53931401915514,171.27018826715155 396.3303138471979,166.77288003610508 396.1508080206192,162.27557180505866 396.08734859440096,157.77826357401221 396.21046364258916,153.28095534296577 396.5686460708244,148.78364711191924 397.1835694573416,144.2863388808728 398.04804872584975,139.78903064982632 399.1277069302008,135.29172241877987 400.3664114502007,130.79441418773342 401.6946085012478,126.29710595668695 403.03900763908996,121.79979772564056 404.33183279809157,117.30248949459403 405.51809067734183,112.80518126354758 406.55989217002445,108.3078730325011 407.4375924168146,103.81056480145463 408.1481763575585,99.31325657040821 408.7017549133525,94.81594833936174 411.2982450866475,94.81594833936174 411.8518236424415,99.31325657040821 412.5624075831854,103.81056480145463 413.44010782997555,108.3078730325011 414.48190932265817,112.80518126354758 415.66816720190843,117.30248949459403 416.96099236091004,121.79979772564056 418.3053914987522,126.29710595668695 419.6335885497993,130.79441418773342 420.8722930697992,135.29172241877987 421.95195127415025,139.78903064982632 422.8164305426584,144.2863388808728 423.4313539291756,148.78364711191924 423.78953635741084,153.28095534296577 423.91265140559904,157.77826357401221 423.8491919793808,162.27557180505866 423.6696861528021,166.77288003610508 423.46068598084486,171.27018826715155 423.319057473831,175.767496498198 423.3475433103735,180.26480472924445 423.6516300091963,184.7621129602909 424.33676374963477,189.25942119133737 425.50430188554793,193.7567294223838 427.24455318628543,198.25403765343034 429.62595371748927,202.7513458844768 432.6807192343514,207.24865411552324 436.3888743883252,211.74596234656968 440.66392907268454,216.24327057761613 445.3442000295735,220.74057880866258 450.1935372623765,225.23788703970905 454.91391483397257,229.7351952707555 459.1701676899839,234.232503501802 462.62454362877475,238.72981173284845 464.9763057209203,243.2271199638949 466.0,247.72442819494137 465.57567842080476,252.22173642598779 463.7055177733203,256.71904465703426 460.5137031796422,261.2163528880807 456.22960613784824,265.71366111912715 451.15743298617156,270.2109693501736 445.6379056268914,274.7082775812201 440.00863299687614,279.2055858122666 434.569466977386,283.702894043313 429.5575228396346,288.20020227435947 425.13418851573783,292.69751050540594 421.3839787794004,297.19481873645236 418.3230754322596,301.69212696749884 415.9141921768604,306.1894351985453 414.08410748220257,310.6867434295918 412.7406785183738,315.1840516606382" fill="#2ca02c" fill-opacity="0.5" stroke="#2ca02c" stroke-width="1.0"/><polygon points="548.0154689810348,263.96766397751156 547.0775990300214,261.3187568991431 545.8173526158321,258.6698498207747 544.1789153981588,256.02094274240625 542.1179780527004,253.3720356640378 539.6097923478014,250.72312858566934 536.6564494868485,248.07422150730088 533.2919009624767,245.42531442893244 529.5834030425569,242.77640735056406 525.6285781451711,240.1275002721956 521.5480705660481,237.47859319382715 517.474656320241,234.82968611545868 513.5404235828856,232.18077903709025 509.8640663283671,229.5318719587218 506.5403101823423,226.88296488035334 503.63302356277705,224.2340578019849 501.1727902852708,221.58515072361647 499.1588430218444,218.936243645248 497.56450224362004,216.28733656687956 496.3447980704118,213.63842948851115 495.4448397484205,210.9895224101427 494.8077019940102,208.34061533177427 494.3810049565919,205.6917082534058 494.1218294490958,203.04280117503737 494.0,200.39389409666893 494.0,197.7449870183005 494.1218294490958,195.09607993993203 494.3810049565919,192.4471728615636 494.8077019940102,189.79826578319518 495.4448397484205,187.14935870482674 496.3447980704118,184.50045162645827 497.56450224362004,181.85154454808983 499.1588430218444,179.2026374697214 501.1727902852708,176.55373039135293 503.6330235627771,173.9048233129845 506.5403101823423,171.25591623461605 509.8640663283671,168.60700915624759 513.5404235828856,165.95810207787918 517.4746563202409,163.30919499951077 521.548070566048,160.66028792114227 525.6285781451711,158.01138084277386 529.5834030425569,155.36247376440542 533.2919009624767,152.71356668603693 536.6564494868485,150.06465960766852 539.6097923478014,147.41575252930008 542.1179780527004,144.76684545093158 544.1789153981588,142.11793837256317 545.8173526158321,139.46903129419474 547.0775990300214,136.82012421582624 548.0154689810348,134.17121713745783 551.9845310189652,134.17121713745783 552.9224009699786,136.82012421582624 554.1826473841679,139.46903129419474 555.8210846018412,142.11793837256317 557.8820219472996,144.76684545093158 560.3902076521986,147.41575252930008 563.3435505131515,150.06465960766852 566.7080990375233,152.71356668603693 570.4165969574431,155.36247376440542 574.3714218548289,158.01138084277386 578.451929433952,160.66028792114227 582.5253436797591,163.30919499951077 586.4595764171144,165.95810207787918 590.1359336716329,168.60700915624759 593.4596898176577,171.25591623461605 596.3669764372229,173.9048233129845 598.8272097147292,176.55373039135293 600.8411569781556,179.2026374697214 602.43549775638,181.85154454808983 603.6552019295882,184.50045162645827 604.5551602515794,187.14935870482674 605.1922980059899,189.79826578319518 605.6189950434081,192.4471728615636 605.8781705509042,195.09607993993203 606.0,197.7449870183005 606.0,200.39389409666893 605.8781705509042,203.04280117503737 605.6189950434081,205.6917082534058 605.1922980059899,208.34061533177427 604.5551602515794,210.9895224101427 603.6552019295882,213.63842948851115 602.43549775638,216.28733656687956 600.8411569781556,218.936243645248 598.8272097147292,221.58515072361647 596.3669764372229,224.2340578019849 593.4596898176577,226.88296488035334 590.1359336716329,229.5318719587218 586.4595764171144,232.18077903709025 582.525343679759,234.82968611545868 578.4519294339519,237.47859319382715 574.3714218548289,240.1275002721956 570.4165969574431,242.77640735056406 566.7080990375233,245.42531442893244 563.3435505131515,248.07422150730088 560.3902076521986,250.72312858566934 557.8820219472996,253.3720356640378 555.8210846018412,256.02094274240625 554.1826473841679,258.6698498207747 552.9224009699786,261.3187568991431 551.9845310189652,263.96766397751156" fill="#d62728" fill-opacity="0.5" stroke="#d62728" stroke-width="1.0"/><text x="60.0" y="16.0" font-family="sans-serif" font-size="16.0" fill="#333333" text-anchor="start">Distribution Shape</text><text x="60.0" y="32.0" font-family="sans-serif" font-size="12.0" fill="#666666" text-anchor="start">Violin plots — same groups as box</text><text x="20.0" y="205.0" font-family="sans-serif" font-size="12.0" fill="#333333" text-anchor="middle" transform="rotate(-90.0 20.0 205.0)">Value</text><rect x="520.0" y="44.0" width="12.0" height="12.0" fill="#1f77b4" stroke="none" stroke-width="0.0"/><text x="538.0" y="55.0" font-family="sans-serif" font-size="12.0" fill="#333333" text-anchor="start">A</text><rect x="520.0" y="62.0" width="12.0" height="12.0" fill="#ff7f0e" stroke="none" stroke-width="0.0"/><text x="538.0" y="73.0" font-family="sans-serif" font-size="12.0" fill="#333333" text-anchor="start">B</text><rect x="520.0" y="80.0" width="12.0" height="12.0" fill="#2ca02c" stroke="none" stroke-width="0.0"/><text x="538.0" y="91.0" font-family="sans-serif" font-size="12.0" fill="#333333" text-anchor="start">C</text><rect x="520.0" y="98.0" width="12.0" height="12.0" fill="#d62728" stroke="none" stroke-width="0.0"/><text x="538.0" y="109.0" font-family="sans-serif" font-size="12.0" fill="#333333" text-anchor="start">D</text></svg>