<svg xmlns="http://www.w3.org/2000/svg" width="640" height="420" viewBox="0 0 640 420"><rect x="0" y="0" width="640" height="420" fill="white"/><line x1="60.0" y1="40.0" x2="60.0" y2="370.0" stroke="#e0e0e0" stroke-width="1.0"/><line x1="172.0" y1="40.0" x2="172.0" y2="370.0" stroke="#e0e0e0" stroke-width="1.0"/><line x1="284.0" y1="40.0" x2="284.0" y2="370.0" stroke="#e0e0e0" stroke-width="1.0"/><line x1="396.0" y1="40.0" x2="396.0" y2="370.0" stroke="#e0e0e0" stroke-width="1.0"/><line x1="508.0" y1="40.0" x2="508.0" y2="370.0" stroke="#e0e0e0" stroke-width="1.0"/><line x1="620.0" y1="40.0" x2="620.0" y2="370.0" stroke="#e0e0e0" stroke-width="1.0"/><line x1="60.0" y1="370.0" x2="620.0" y2="370.0" stroke="#e0e0e0" stroke-width="1.0"/><line x1="60.0" y1="304.0" x2="620.0" y2="304.0" stroke="#e0e0e0" stroke-width="1.0"/><line x1="60.0" y1="238.0" x2="620.0" y2="238.0" stroke="#e0e0e0" stroke-width="1.0"/><line x1="60.0" y1="171.99999999999997" x2="620.0" y2="171.99999999999997" stroke="#e0e0e0" stroke-width="1.0"/><line x1="60.0" y1="106.0" x2="620.0" y2="106.0" stroke="#e0e0e0" stroke-width="1.0"/><line x1="60.0" y1="40.0" x2="620.0" y2="40.0" stroke="#e0e0e0" stroke-width="1.0"/><line x1="60.0" y1="370.0" x2="620.0" y2="370.0" stroke="#333333" stroke-width="1.0"/><line x1="60.0" y1="40.0" x2="60.0" y2="370.0" stroke="#333333" stroke-width="1.0"/><line x1="60.0" y1="370.0" x2="60.0" y2="375.0" stroke="#333333" stroke-width="1.0"/><text x="60.0" y="388.0" font-family="sans-serif" font-size="12.0" fill="#333333" text-anchor="middle">0</text><line x1="172.0" y1="370.0" x2="172.0" y2="375.0" stroke="#333333" stroke-width="1.0"/><text x="172.0" y="388.0" font-family="sans-serif" font-size="12.0" fill="#333333" text-anchor="middle">1</text><line x1="284.0" y1="370.0" x2="284.0" y2="375.0" stroke="#333333" stroke-width="1.0"/><text x="284.0" y="388.0" font-family="sans-serif" font-size="12.0" fill="#333333" text-anchor="middle">2</text><line x1="396.0" y1="370.0" x2="396.0" y2="375.0" stroke="#333333" stroke-width="1.0"/><text x="396.0" y="388.0" font-family="sans-serif" font-size="12.0" fill="#333333" text-anchor="middle">3</text><line x1="508.0" y1="370.0" x2="508.0" y2="375.0" stroke="#333333" stroke-width="1.0"/><text x="508.0" y="388.0" font-family="sans-serif" font-size="12.0" fill="#333333" text-anchor="middle">4</text><line x1="620.0" y1="370.0" x2="620.0" y2="375.0" stroke="#333333" stroke-width="1.0"/><text x="620.0" y="388.0" font-family="sans-serif" font-size="12.0" fill="#333333" text-anchor="middle">5</text><line x1="55.0" y1="370.0" x2="60.0" y2="370.0" stroke="#333333" stroke-width="1.0"/><text x="52.0" y="374.0" font-family="sans-serif" font-size="12.0" fill="#333333" text-anchor="end">0</text><line x1="55.0" y1="304.0" x2="60.0" y2="304.0" stroke="#333333" stroke-width="1.0"/><text x="52.0" y="308.0" font-family="sans-serif" font-size="12.0" fill="#333333" text-anchor="end">0.20</text><line x1="55.0" y1="238.0" x2="60.0" y2="238.0" stroke="#333333" stroke-width="1.0"/><text x="52.0" y="242.0" font-family="sans-serif" font-size="12.0" fill="#333333" text-anchor="end">0.40</text><line x1="55.0" y1="171.99999999999997" x2="60.0" y2="171.99999999999997" stroke="#333333" stroke-width="1.0"/><text x="52.0" y="175.99999999999997" font-family="sans-serif" font-size="12.0" fill="#333333" text-anchor="end">0.60</text><line x1="55.0" y1="106.0" x2="60.0" y2="106.0" stroke="#333333" stroke-width="1.0"/><text x="52.0" y="110.0" font-family="sans-serif" font-size="12.0" fill="#333333" text-anchor="end">0.80</text><line x1="55.0" y1="40.0" x2="60.0" y2="40.0" stroke="#333333" stroke-width="1.0"/><text x="52.0" y="44.0" font-family="sans-serif" font-size="12.0" fill="#333333" text-anchor="end">1</text><polygon points="60.0,370.0 60.0,40.0 172.0,134.64166666666665 284.0,184.75833333333333 396.0,214.51666666666665 508.0,232.675 620.0,244.3375 620.0,370.0" fill="#1f77b4" fill-opacity="0.2" stroke="none" stroke-width="0.0"/><polyline fill="none" stroke="#1f77b4" stroke-width="1.5" points="60.0,40.0 172.0,134.64166666666665 284.0,184.75833333333333 396.0,214.51666666666665 508.0,232.675 620.0,244.3375"/><text x="60.0" y="16.0" font-family="sans-serif" font-size="16.0" fill="#333333" text-anchor="start">Average Retention</text><text x="60.0" y="32.0" font-family="sans-serif" font-size="12.0" fill="#666666" text-anchor="start">Area under the average retention curve</text><text x="340.0" y="412.0" font-family="sans-serif" font-size="12.0" fill="#333333" text-anchor="middle">Months since signup</text><text x="20.0" y="205.0" font-family="sans-serif" font-size="12.0" fill="#333333" text-anchor="middle" transform="rotate(-90.0 20.0 205.0)">Retention</text></svg>