<svg xmlns="http://www.w3.org/2000/svg" width="640" height="420" viewBox="0 0 640 420"><rect x="0" y="0" width="640" height="420" fill="white"/><line x1="60.0" y1="40.0" x2="60.0" y2="370.0" stroke="#e0e0e0" stroke-width="1.0"/><line x1="172.0" y1="40.0" x2="172.0" y2="370.0" stroke="#e0e0e0" stroke-width="1.0"/><line x1="284.0" y1="40.0" x2="284.0" y2="370.0" stroke="#e0e0e0" stroke-width="1.0"/><line x1="396.0" y1="40.0" x2="396.0" y2="370.0" stroke="#e0e0e0" stroke-width="1.0"/><line x1="508.0" y1="40.0" x2="508.0" y2="370.0" stroke="#e0e0e0" stroke-width="1.0"/><line x1="620.0" y1="40.0" x2="620.0" y2="370.0" stroke="#e0e0e0" stroke-width="1.0"/><line x1="60.0" y1="322.85714285714283" x2="620.0" y2="322.85714285714283" stroke="#e0e0e0" stroke-width="1.0"/><line x1="60.0" y1="228.57142857142853" x2="620.0" y2="228.57142857142853" stroke="#e0e0e0" stroke-width="1.0"/><line x1="60.0" y1="134.28571428571428" x2="620.0" y2="134.28571428571428" stroke="#e0e0e0" stroke-width="1.0"/><line x1="60.0" y1="40.0" x2="620.0" y2="40.0" stroke="#e0e0e0" stroke-width="1.0"/><line x1="60.0" y1="370.0" x2="620.0" y2="370.0" stroke="#333333" stroke-width="1.0"/><line x1="60.0" y1="40.0" x2="60.0" y2="370.0" stroke="#333333" stroke-width="1.0"/><line x1="60.0" y1="370.0" x2="60.0" y2="375.0" stroke="#333333" stroke-width="1.0"/><text x="60.0" y="388.0" font-family="sans-serif" font-size="12.0" fill="#333333" text-anchor="middle">0</text><line x1="172.0" y1="370.0" x2="172.0" y2="375.0" stroke="#333333" stroke-width="1.0"/><text x="172.0" y="388.0" font-family="sans-serif" font-size="12.0" fill="#333333" text-anchor="middle">1</text><line x1="284.0" y1="370.0" x2="284.0" y2="375.0" stroke="#333333" stroke-width="1.0"/><text x="284.0" y="388.0" font-family="sans-serif" font-size="12.0" fill="#333333" text-anchor="middle">2</text><line x1="396.0" y1="370.0" x2="396.0" y2="375.0" stroke="#333333" stroke-width="1.0"/><text x="396.0" y="388.0" font-family="sans-serif" font-size="12.0" fill="#333333" text-anchor="middle">3</text><line x1="508.0" y1="370.0" x2="508.0" y2="375.0" stroke="#333333" stroke-width="1.0"/><text x="508.0" y="388.0" font-family="sans-serif" font-size="12.0" fill="#333333" text-anchor="middle">4</text><line x1="620.0" y1="370.0" x2="620.0" y2="375.0" stroke="#333333" stroke-width="1.0"/><text x="620.0" y="388.0" font-family="sans-serif" font-size="12.0" fill="#333333" text-anchor="middle">5</text><line x1="55.0" y1="322.85714285714283" x2="60.0" y2="322.85714285714283" stroke="#333333" stroke-width="1.0"/><text x="52.0" y="326.85714285714283" font-family="sans-serif" font-size="12.0" fill="#333333" text-anchor="end">0.40</text><line x1="55.0" y1="228.57142857142853" x2="60.0" y2="228.57142857142853" stroke="#333333" stroke-width="1.0"/><text x="52.0" y="232.57142857142853" font-family="sans-serif" font-size="12.0" fill="#333333" text-anchor="end">0.60</text><line x1="55.0" y1="134.28571428571428" x2="60.0" y2="134.28571428571428" stroke="#333333" stroke-width="1.0"/><text x="52.0" y="138.28571428571428" font-family="sans-serif" font-size="12.0" fill="#333333" text-anchor="end">0.80</text><line x1="55.0" y1="40.0" x2="60.0" y2="40.0" stroke="#333333" stroke-width="1.0"/><text x="52.0" y="44.0" font-family="sans-serif" font-size="12.0" fill="#333333" text-anchor="end">1</text><polygon points="60.0,40.0 172.0,157.85714285714283 284.0,220.71428571428567 396.0,267.85714285714283 508.0,291.42857142857144 620.0,311.07142857142856 620.0,370.0 508.0,354.2857142857143 396.0,328.0952380952381 284.0,286.19047619047615 172.0,202.38095238095235 60.0,40.0" fill="#1f77b4" fill-opacity="0.2" stroke="none" stroke-width="0.0"/><polyline fill="none" stroke="#cccccc" stroke-width="1.5" points="60.0,40.0 172.0,172.0 284.0,247.4285714285714 396.0,289.8571428571429 508.0,318.14285714285717 620.0,332.2857142857143"/><polyline fill="none" stroke="#cccccc" stroke-width="1.5" points="60.0,40.0 172.0,157.85714285714283 284.0,220.71428571428567 396.0,267.85714285714283 508.0,291.42857142857144 620.0,311.07142857142856"/><polyline fill="none" stroke="#cccccc" stroke-width="1.5" points="60.0,40.0 172.0,202.38095238095235 284.0,286.19047619047615 396.0,328.0952380952381 508.0,354.2857142857143 620.0,370.0"/><polyline fill="none" stroke="#cccccc" stroke-width="1.5" points="60.0,40.0 172.0,168.57142857142856 284.0,232.85714285714283 396.0,271.42857142857144 508.0,297.1428571428571 620.0,314.2857142857143"/><polyline fill="none" stroke="#1f77b4" stroke-width="1.5" points="60.0,40.0 172.0,175.2023809523809 284.0,246.79761904761904 396.0,289.3095238095238 508.0,315.25 620.0,331.9107142857143"/><text x="60.0" y="16.0" font-family="sans-serif" font-size="16.0" fill="#333333" text-anchor="start">Cohort Retention</text><text x="60.0" y="32.0" font-family="sans-serif" font-size="12.0" fill="#666666" text-anchor="start">Average with cross-cohort min/max band</text><text x="340.0" y="412.0" font-family="sans-serif" font-size="12.0" fill="#333333" text-anchor="middle">Months since signup</text><text x="20.0" y="205.0" font-family="sans-serif" font-size="12.0" fill="#333333" text-anchor="middle" transform="rotate(-90.0 20.0 205.0)">Retention</text><rect x="520.0" y="44.0" width="12.0" height="12.0" fill="#1f77b4" stroke="none" stroke-width="0.0"/><text x="538.0" y="55.0" font-family="sans-serif" font-size="12.0" fill="#333333" text-anchor="start">min/max</text><rect x="520.0" y="62.0" width="12.0" height="12.0" fill="#1f77b4" stroke="none" stroke-width="0.0"/><text x="538.0" y="73.0" font-family="sans-serif" font-size="12.0" fill="#333333" text-anchor="start">average</text></svg>