<svg xmlns="http://www.w3.org/2000/svg" width="560" height="380" viewBox="0 0 560 380"><rect x="0" y="0" width="560" height="380" fill="white"/><line x1="60.0" y1="40.0" x2="60.0" y2="330.0" stroke="#e0e0e0" stroke-width="1.0"/><line x1="180.0" y1="40.0" x2="180.0" y2="330.0" stroke="#e0e0e0" stroke-width="1.0"/><line x1="300.0" y1="40.0" x2="300.0" y2="330.0" stroke="#e0e0e0" stroke-width="1.0"/><line x1="420.0" y1="40.0" x2="420.0" y2="330.0" stroke="#e0e0e0" stroke-width="1.0"/><line x1="540.0" y1="40.0" x2="540.0" y2="330.0" stroke="#e0e0e0" stroke-width="1.0"/><line x1="60.0" y1="330.0" x2="540.0" y2="330.0" stroke="#e0e0e0" stroke-width="1.0"/><line x1="60.0" y1="205.73875455047454" x2="540.0" y2="205.73875455047454" stroke="#e0e0e0" stroke-width="1.0"/><line x1="60.0" y1="81.47750910094908" x2="540.0" y2="81.47750910094908" stroke="#e0e0e0" stroke-width="1.0"/><line x1="60.0" y1="330.0" x2="540.0" y2="330.0" stroke="#333333" stroke-width="1.0"/><line x1="60.0" y1="40.0" x2="60.0" y2="330.0" stroke="#333333" stroke-width="1.0"/><line x1="60.0" y1="330.0" x2="60.0" y2="335.0" stroke="#333333" stroke-width="1.0"/><text x="60.0" y="348.0" font-family="sans-serif" font-size="12.0" fill="#333333" text-anchor="middle">-0.50</text><line x1="180.0" y1="330.0" x2="180.0" y2="335.0" stroke="#333333" stroke-width="1.0"/><text x="180.0" y="348.0" font-family="sans-serif" font-size="12.0" fill="#333333" text-anchor="middle">0</text><line x1="300.0" y1="330.0" x2="300.0" y2="335.0" stroke="#333333" stroke-width="1.0"/><text x="300.0" y="348.0" font-family="sans-serif" font-size="12.0" fill="#333333" text-anchor="middle">0.50</text><line x1="420.0" y1="330.0" x2="420.0" y2="335.0" stroke="#333333" stroke-width="1.0"/><text x="420.0" y="348.0" font-family="sans-serif" font-size="12.0" fill="#333333" text-anchor="middle">1</text><line x1="540.0" y1="330.0" x2="540.0" y2="335.0" stroke="#333333" stroke-width="1.0"/><text x="540.0" y="348.0" font-family="sans-serif" font-size="12.0" fill="#333333" text-anchor="middle">1.50</text><line x1="55.0" y1="330.0" x2="60.0" y2="330.0" stroke="#333333" stroke-width="1.0"/><text x="52.0" y="334.0" font-family="sans-serif" font-size="12.0" fill="#333333" text-anchor="end">0</text><line x1="55.0" y1="205.73875455047454" x2="60.0" y2="205.73875455047454" stroke="#333333" stroke-width="1.0"/><text x="52.0" y="209.73875455047454" font-family="sans-serif" font-size="12.0" fill="#333333" text-anchor="end">0.10</text><line x1="55.0" y1="81.47750910094908" x2="60.0" y2="81.47750910094908" stroke="#333333" stroke-width="1.0"/><text x="52.0" y="85.47750910094908" font-family="sans-serif" font-size="12.0" fill="#333333" text-anchor="end">0.20</text><rect x="84.0" y="180.88650546056948" width="192.0" height="149.11349453943052" fill="#2ca02c" stroke="none" stroke-width="0.0"/><rect x="324.0" y="106.32975819085422" width="192.0" height="223.67024180914578" fill="#2ca02c" stroke="none" stroke-width="0.0"/><line x1="180.0" y1="236.99094062181894" x2="180.0" y2="124.78207029932" stroke="#333333" stroke-width="1.0"/><line x1="176.0" y1="124.78207029932" x2="184.0" y2="124.78207029932" stroke="#333333" stroke-width="1.0"/><line x1="176.0" y1="236.99094062181894" x2="184.0" y2="236.99094062181894" stroke="#333333" stroke-width="1.0"/><line x1="420.0" y1="172.6595163817084" x2="420.0" y2="40.0" stroke="#333333" stroke-width="1.0"/><line x1="416.0" y1="40.0" x2="424.0" y2="40.0" stroke="#333333" stroke-width="1.0"/><line x1="416.0" y1="172.6595163817084" x2="424.0" y2="172.6595163817084" stroke="#333333" stroke-width="1.0"/><text x="180.0" y="176.88650546056948" font-family="sans-serif" font-size="12.0" fill="#333333" text-anchor="middle">12.0%</text><text x="420.0" y="102.32975819085422" font-family="sans-serif" font-size="12.0" fill="#333333" text-anchor="middle">18.0%</text><text x="60.0" y="16.0" font-family="sans-serif" font-size="16.0" fill="#333333" text-anchor="start">A/B Test: Conversion Rate</text><text x="60.0" y="32.0" font-family="sans-serif" font-size="12.0" fill="#666666" text-anchor="start">No significant difference (p=0.093)</text><text x="300.0" y="372.0" font-family="sans-serif" font-size="12.0" fill="#333333" text-anchor="middle">Arm (0 = control, 1 = treatment)</text><text x="20.0" y="185.0" font-family="sans-serif" font-size="12.0" fill="#333333" text-anchor="middle" transform="rotate(-90.0 20.0 185.0)">Conversion rate</text></svg>